<?xml version="1.0" encoding="UTF-8"?>
<svg version="1.1" xmlns="http://www.w3.org/2000/svg" width="512" height="512">
<path d="M0 0 C0.89245403 -0.00445784 1.78490805 -0.00891569 2.70440614 -0.01350862 C3.6756929 -0.01332426 4.64697966 -0.01313989 5.64769936 -0.01294994 C7.20631642 -0.01846498 7.20631642 -0.01846498 8.79642069 -0.02409142 C12.28368663 -0.03511806 15.77092275 -0.03897043 19.25820351 -0.04278088 C21.75673962 -0.04904643 24.25527481 -0.05569331 26.75380898 -0.0626936 C34.25649786 -0.08191342 41.75917884 -0.09252206 49.26188511 -0.10142139 C52.80042955 -0.10580998 56.33897252 -0.11117542 59.87751579 -0.11641026 C71.65062524 -0.13342202 83.42373379 -0.14791331 95.19685364 -0.155159 C98.25018121 -0.15706871 101.30350878 -0.15898907 104.35683632 -0.16094494 C105.49508915 -0.16167055 105.49508915 -0.16167055 106.65633698 -0.16241082 C118.9323327 -0.17070036 131.20823063 -0.19601927 143.48418371 -0.22852562 C156.10552488 -0.26167222 168.7268165 -0.27961472 181.34820139 -0.28280324 C188.42730691 -0.28496164 195.50626996 -0.29361113 202.58533287 -0.31926441 C209.25187032 -0.34336769 215.91810828 -0.34674964 222.58469582 -0.33650303 C225.02304498 -0.33600925 227.46140703 -0.3422828 229.89971733 -0.35605907 C251.3392374 -0.47034979 267.84975846 1.45938288 284.10830116 16.72406483 C295.27118676 28.31918337 300.31095282 42.50038824 300.45986366 58.48968983 C299.664093 75.14119089 292.33211964 88.70606309 280.42861366 100.13422108 C268.41925606 109.91724501 254.88505054 113.45542424 239.67072487 113.39491749 C238.63413068 113.39874304 237.59753648 113.40256858 236.52953035 113.40651006 C233.08071836 113.41677017 229.63207503 113.41286121 226.18325233 113.40887928 C223.70043726 113.41322963 221.21762353 113.41841386 218.73481178 113.42436695 C212.70523834 113.43634733 206.67573037 113.43891248 200.64615103 113.43656669 C195.74136642 113.43477888 190.83659529 113.43654307 185.93181229 113.44079113 C185.23197883 113.44138632 184.53214537 113.44198151 183.81110484 113.44259473 C182.38907668 113.44380657 180.96704853 113.4450207 179.54502038 113.44623711 C166.22781406 113.45709785 152.9106331 113.45495721 139.59342537 113.44885226 C127.43280867 113.44368538 115.27227214 113.45493511 103.11167129 113.47395048 C90.60091708 113.49336217 78.09020072 113.50157899 65.57943135 113.49782723 C58.56533279 113.49592011 51.55130241 113.49835479 44.53721619 113.51254177 C37.93878479 113.52575384 31.34048674 113.52315045 24.74204636 113.51013088 C22.32704933 113.50777136 19.91204095 113.51047726 17.49705696 113.51875401 C-3.83649918 113.5865697 -21.17992983 112.03037951 -37.35654259 96.50922108 C-48.34469033 84.72651592 -53.45302133 70.84366345 -53.60263634 54.77875233 C-52.85978759 39.23464228 -46.42479074 24.82439321 -35.01279259 14.16547108 C-25.1408416 5.95200786 -13.07509909 0.03046455 0 0 Z M-17.57138634 24.13422108 C-16.25138634 25.45422108 -14.93138634 26.77422108 -13.57138634 28.13422108 C-12.91654259 27.91765858 -12.26169884 27.70109608 -11.58701134 27.47797108 C-0.27793977 24.02774585 9.23919941 24.43378487 20.42861366 28.13422108 C21.74861366 26.48422108 23.06861366 24.83422108 24.42861366 23.13422108 C22.87009611 22.31410796 21.3065965 21.50345895 19.74111366 20.69672108 C18.87099648 20.24426014 18.00087929 19.7917992 17.10439491 19.32562733 C6.84986772 14.75974296 -9.74041264 15.20281643 -17.57138634 24.13422108 Z M44.42861366 17.13422108 C46.40861366 20.10422108 48.38861366 23.07422108 50.42861366 26.13422108 C51.5599557 28.12857402 52.65207086 30.14645564 53.67861366 32.19672108 C54.15814491 33.13644764 54.63767616 34.0761742 55.13173866 35.04437733 C60.50209272 47.83940762 60.43694729 64.37514815 55.70205116 77.33734608 C53.6423387 81.86113173 51.20515767 86.01799459 48.42861366 90.13422108 C47.10861366 92.11422108 45.78861366 94.09422108 44.42861366 96.13422108 C96.56861366 96.13422108 148.70861366 96.13422108 202.42861366 96.13422108 C200.11861366 92.50422108 197.80861366 88.87422108 195.42861366 85.13422108 C187.70850677 70.8949128 185.53517437 54.76125858 190.05361366 38.94672108 C192.14162977 33.23059188 195.03442003 28.16611314 198.42861366 23.13422108 C199.74861366 21.15422108 201.06861366 19.17422108 202.42861366 17.13422108 C150.28861366 17.13422108 98.14861366 17.13422108 44.42861366 17.13422108 Z M222.42861366 23.13422108 C223.74861366 24.78422108 225.06861366 26.43422108 226.42861366 28.13422108 C227.08345741 27.91765858 227.73830116 27.70109608 228.41298866 27.47797108 C239.72206023 24.02774585 249.23919941 24.43378487 260.42861366 28.13422108 C261.74861366 26.48422108 263.06861366 24.83422108 264.42861366 23.13422108 C262.84786802 22.31669804 261.26390143 21.50540111 259.67861366 20.69672108 C258.79689491 20.24426014 257.91517616 19.7917992 257.00673866 19.32562733 C246.23690596 14.34865919 232.03228467 16.41165137 222.42861366 23.13422108 Z M-30.57138634 36.13422108 C-36.15886374 45.44668342 -37.74235162 56.03371737 -35.35263634 66.64593983 C-34.16659569 70.4234793 -32.52064095 73.69053793 -30.57138634 77.13422108 C-27.41022858 75.76438605 -26.57867714 75.14515728 -24.57138634 72.13422108 C-25.27861514 70.48402053 -25.99442537 68.83682564 -26.75888634 67.21234608 C-30.00562556 58.90818615 -28.37439421 50.14257628 -25.44638634 42.00922108 C-25.01326134 41.08109608 -25.01326134 41.08109608 -24.57138634 40.13422108 C-25.8610381 38.75859253 -27.19827926 37.42655715 -28.57138634 36.13422108 C-29.23138634 36.13422108 -29.89138634 36.13422108 -30.57138634 36.13422108 Z M35.42861366 36.13422108 C34.04628923 37.76048511 32.70923851 39.42672128 31.42861366 41.13422108 C31.91587929 42.1267992 32.40314491 43.11937733 32.90517616 44.14203358 C34.58359527 48.07416031 34.88953254 51.76646503 34.80361366 56.00922108 C34.79781288 56.70595936 34.7920121 57.40269764 34.78603554 58.1205492 C34.64658072 63.67291696 33.60287438 68.06094607 31.42861366 73.13422108 C32.71826542 74.50984962 34.05550659 75.84188501 35.42861366 77.13422108 C36.08861366 77.13422108 36.74861366 77.13422108 37.42861366 77.13422108 C42.92711737 66.94235171 44.59350389 56.14624785 41.55361366 44.89593983 C40.62924828 42.54764394 39.63489951 40.34816739 38.42861366 38.13422108 C38.09861366 37.47422108 37.76861366 36.81422108 37.42861366 36.13422108 C36.76861366 36.13422108 36.10861366 36.13422108 35.42861366 36.13422108 Z M209.42861366 36.13422108 C208.77768777 37.38157675 208.13309697 38.6322394 207.49111366 39.88422108 C206.95164101 40.9283617 206.95164101 40.9283617 206.40126991 41.99359608 C202.83129413 49.85041025 203.13335165 60.74572844 205.54580116 68.91937733 C206.732917 71.73290893 207.97914114 74.44752022 209.42861366 77.13422108 C212.58977142 75.76438605 213.42132286 75.14515728 215.42861366 72.13422108 C214.97486366 71.08234608 214.52111366 70.03047108 214.05361366 68.94672108 C210.94149479 61.45818505 211.0927271 50.69658525 213.92861366 43.13422108 C214.42361366 42.14422108 214.91861366 41.15422108 215.42861366 40.13422108 C214.1389619 38.75859253 212.80172074 37.42655715 211.42861366 36.13422108 C210.76861366 36.13422108 210.10861366 36.13422108 209.42861366 36.13422108 Z M275.42861366 36.13422108 C274.04628923 37.76048511 272.70923851 39.42672128 271.42861366 41.13422108 C271.90298866 42.08297108 272.37736366 43.03172108 272.86611366 44.00922108 C276.70603101 53.09702547 275.57147821 62.18181955 272.30361366 71.25922108 C272.01486366 71.87797108 271.72611366 72.49672108 271.42861366 73.13422108 C272.71826542 74.50984962 274.05550659 75.84188501 275.42861366 77.13422108 C276.08861366 77.13422108 276.74861366 77.13422108 277.42861366 77.13422108 C283.01609107 67.82175873 284.59957894 57.23472478 282.20986366 46.62250233 C281.02382301 42.84496286 279.37786828 39.57790423 277.42861366 36.13422108 C276.76861366 36.13422108 276.10861366 36.13422108 275.42861366 36.13422108 Z M-10.50888634 48.57172108 C-12.87994819 54.29016437 -12.88657112 58.34625913 -10.57138634 64.13422108 C-7.42037226 67.9854605 -4.28640481 70.5020993 0.42861366 72.13422108 C5.62506661 72.28137727 10.39697833 71.58990851 14.42861366 68.13422108 C18.07949886 63.299265 19.0923556 59.5525577 18.80751991 53.49750233 C18.11775064 49.19533315 16.23205795 46.59523924 12.88564491 43.88422108 C9.27228808 41.50287836 5.90228519 40.44037321 1.48330116 40.68109608 C-3.50822237 41.78188834 -7.37043018 44.62334075 -10.50888634 48.57172108 Z M229.42861366 48.32172108 C227.68516652 53.22516617 227.54231005 58.19102417 229.04970741 63.19672108 C231.09415408 67.41282443 233.94196523 69.69492418 238.21376991 71.54047108 C243.58093682 72.97928831 247.96352875 71.89389473 252.80361366 69.38422108 C256.38231239 66.31676503 257.9643559 63.77697932 259.24111366 59.25922108 C259.54047397 54.2698827 258.3495833 50.58145908 255.67861366 46.38422108 C251.93103736 42.63664478 248.80291081 41.31154974 243.55361366 40.63422108 C237.6748029 40.8711789 233.29323493 44.09479156 229.42861366 48.32172108 Z M-13.57138634 85.13422108 C-14.89138634 86.78422108 -16.21138634 88.43422108 -17.57138634 90.13422108 C-7.69707463 95.41761903 1.58637057 97.99836083 12.76455116 95.34125233 C19.29292468 93.3883899 19.29292468 93.3883899 24.42861366 89.13422108 C22.80792422 86.93930086 22.80792422 86.93930086 20.42861366 85.13422108 C17.67049591 85.31067298 17.67049591 85.31067298 14.80361366 86.38422108 C4.53317265 89.34350069 -3.38537658 88.07451255 -13.57138634 85.13422108 Z M226.42861366 85.13422108 C225.10861366 86.78422108 223.78861366 88.43422108 222.42861366 90.13422108 C232.30292537 95.41761903 241.58637057 97.99836083 252.76455116 95.34125233 C259.29292468 93.3883899 259.29292468 93.3883899 264.42861366 89.13422108 C262.80792422 86.93930086 262.80792422 86.93930086 260.42861366 85.13422108 C257.67049591 85.31067298 257.67049591 85.31067298 254.80361366 86.38422108 C244.53317265 89.34350069 236.61462342 88.07451255 226.42861366 85.13422108 Z " fill="#000000" transform="translate(132.57138633728027,270.86577892303467)"/>
<path d="M0 0 C148.5 0 297 0 450 0 C450 58.41 450 116.82 450 177 C301.5 177 153 177 0 177 C0 118.59 0 60.18 0 0 Z M17 17 C17 64.19 17 111.38 17 160 C154.28 160 291.56 160 433 160 C433 112.81 433 65.62 433 17 C295.72 17 158.44 17 17 17 Z " fill="#000000" transform="translate(31,239)"/>
<path d="M0 0 C168.96 0 337.92 0 512 0 C512 99.99 512 199.98 512 303 C496.16 303 480.32 303 464 303 C464 297.72 464 292.44 464 287 C474.56 287 485.12 287 496 287 C496 197.57 496 108.14 496 16 C337.6 16 179.2 16 16 16 C16 105.43 16 194.86 16 287 C26.56 287 37.12 287 48 287 C48 292.28 48 297.56 48 303 C32.16 303 16.32 303 0 303 C0 203.01 0 103.02 0 0 Z " fill="#000000" transform="translate(0,208)"/>
<path d="M0 0 C120.78 0 241.56 0 366 0 C384 71 384 71 386 81 C252.02 81 118.04 81 -20 81 C-13.96697542 53.85138938 -6.84575241 26.95515013 0 0 Z M14 17 C13.52277525 18.41000996 13.04745969 19.82066617 12.57292175 21.23158264 C12.30802035 22.01707017 12.04311895 22.8025577 11.77019024 23.61184788 C10.59293552 27.26219713 9.65719029 30.96129913 8.73828125 34.68359375 C8.54276169 35.46517349 8.34724213 36.24675323 8.14579773 37.05201721 C7.73832204 38.68423873 7.3325586 40.31688861 6.9284668 41.94995117 C6.30774196 44.45671508 5.68062713 46.96181984 5.05273438 49.46679688 C4.65587522 51.05980251 4.25937752 52.65289825 3.86328125 54.24609375 C3.6758284 54.99499374 3.48837555 55.74389374 3.29524231 56.51548767 C2.33731421 60.2136625 2.33731421 60.2136625 2 64 C121.46 64 240.92 64 364 64 C361.54207273 52.93932729 359.06618479 41.92224258 356.3125 30.9375 C356.00505859 29.69162109 355.69761719 28.44574219 355.38085938 27.16210938 C354.9390332 25.39383789 354.9390332 25.39383789 354.48828125 23.58984375 C354.09443237 22.00997681 354.09443237 22.00997681 353.69262695 20.39819336 C353.2287805 18.067734 353.2287805 18.067734 352 17 C350.20159951 16.90252581 348.39932091 16.87628586 346.59828091 16.87695217 C345.41890215 16.87496112 344.2395234 16.87297007 343.0244059 16.87091869 C341.71217821 16.87383153 340.39995053 16.87674437 339.04795837 16.87974548 C337.6529126 16.8793099 336.2578669 16.87843524 334.86282164 16.87715632 C331.01133869 16.87490874 327.15988328 16.87893621 323.30840385 16.88393438 C319.16182508 16.88823495 315.01524798 16.88679274 310.8686676 16.8860321 C303.6784573 16.88550662 296.48825604 16.88865598 289.29804802 16.89426994 C278.90209112 16.90238162 268.50613862 16.90499982 258.1101789 16.90625793 C241.24524373 16.90844898 224.3803134 16.91511048 207.51538086 16.92456055 C191.12833683 16.93373331 174.74129412 16.94081481 158.35424805 16.94506836 C157.34490627 16.94533108 156.33556448 16.94559381 155.29563659 16.94586449 C150.23229115 16.94716949 145.16894569 16.9484332 140.10560024 16.94967639 C98.0703968 16.96005064 56.03519868 16.97767037 14 17 Z " fill="#000000" transform="translate(73,431)"/>
<path d="M0 0 C2.14108053 1.65447132 4.18894908 3.34450767 6.1796875 5.17578125 C9.20876604 3.73039902 11.9797343 2.04643533 14.8046875 0.23828125 C24.59603808 -5.61648832 34.25501298 -7.38317112 45.515625 -5.16796875 C56.91706457 -2.08506201 64.94187581 4.15649823 71.1796875 14.17578125 C76.26049093 23.4955982 76.94301013 35.03252527 74.4140625 45.27734375 C73.48959793 47.70589749 72.45484613 49.91426298 71.1796875 52.17578125 C70.6228125 53.16578125 70.0659375 54.15578125 69.4921875 55.17578125 C62.56441811 64.16315775 54.39341937 72.10009951 46.36328125 80.08984375 C45.25491151 81.19634286 44.14676645 82.30306707 43.03883362 83.41000366 C40.15598179 86.28908106 37.27013755 89.16513988 34.38360596 92.04052734 C31.42510676 94.9887018 28.46952161 97.93979462 25.51367188 100.890625 C19.73848541 106.65516394 13.96012649 112.41650935 8.1796875 118.17578125 C4.26935918 116.58349308 1.61242185 113.90436012 -1.31982422 110.96679688 C-2.12554367 110.17115326 -2.12554367 110.17115326 -2.94754028 109.35943604 C-4.72036565 107.60559235 -6.48556671 105.84431491 -8.25 104.08203125 C-9.48529712 102.8531654 -10.72074253 101.62444859 -11.95632935 100.39587402 C-14.54722099 97.81695807 -17.13394398 95.23394025 -19.71826172 92.6484375 C-23.01200316 89.35449365 -26.31923821 86.07447861 -29.63029289 82.79795074 C-32.18872325 80.26189506 -34.73787251 77.7166609 -37.28461075 75.16886902 C-38.49888274 73.95694026 -39.71636007 72.74821344 -40.93722153 71.54292297 C-47.64125162 64.91638867 -53.51495644 58.68106016 -57.8203125 50.17578125 C-58.16415985 49.53684937 -58.5080072 48.89791748 -58.86227417 48.23962402 C-62.68218116 40.78201025 -61.79363495 29.9670769 -60.1640625 21.9453125 C-56.8754603 11.89523077 -49.93578622 3.51504203 -40.8203125 -1.82421875 C-27.5158805 -7.59687345 -12.5288539 -8.10384317 0 0 Z M-38.8203125 19.17578125 C-42.28815915 23.99223493 -43.97390471 27.43351163 -44.1328125 33.36328125 C-44.17019531 34.26433594 -44.20757812 35.16539063 -44.24609375 36.09375 C-42.92155423 45.68147187 -35.95210243 51.57534051 -29.3671875 58.01953125 C-28.34069755 59.03854752 -27.31509703 60.05846044 -26.29034424 61.07922363 C-23.60961251 63.74478777 -20.91708485 66.39811135 -18.22180176 69.0489502 C-15.46607078 71.76353566 -12.72183087 74.48968505 -9.9765625 77.21484375 C-4.60224033 82.54645198 0.78461359 87.86516397 6.1796875 93.17578125 C9.70576082 91.66672958 12.00206289 89.61744801 14.71704102 86.92895508 C15.60798965 86.05076614 16.49893829 85.17257721 17.41688538 84.26777649 C18.38119257 83.30652735 19.34508525 82.34486222 20.30859375 81.3828125 C21.30445529 80.39338254 22.30046488 79.40410158 23.2966156 78.41496277 C25.3822287 76.34131281 27.46367811 74.26358215 29.54272461 72.18334961 C32.19781072 69.52806055 34.8663705 66.88678181 37.53872776 64.24889088 C39.60032506 62.20961453 41.65268316 60.16122698 43.70261955 58.11023521 C44.68213339 57.13307032 45.66486641 56.15912071 46.65094185 55.18857765 C54.93518655 47.08003106 54.93518655 47.08003106 58.61328125 36.3671875 C58.62513386 28.39038106 56.966635 23.3914899 51.7421875 17.36328125 C46.12940214 12.57187912 41.70141129 10.81015203 34.30371094 10.97241211 C25.87583197 11.7793573 21.22290633 16.48644277 15.6796875 22.36328125 C14.95265625 23.11287109 14.225625 23.86246094 13.4765625 24.63476562 C11.69894541 26.47085696 9.9341359 28.31758545 8.1796875 30.17578125 C5.1922588 28.84439196 3.22238768 27.42001832 1.0078125 25.0234375 C0.13382813 24.10594727 0.13382813 24.10594727 -0.7578125 23.16992188 C-1.9568957 21.89201962 -3.14973323 20.6082253 -4.3359375 19.31835938 C-9.42036767 14.01650292 -14.31200299 11.25541818 -21.8203125 10.80078125 C-28.97314978 11.12399394 -34.20863076 13.66738362 -38.8203125 19.17578125 Z " fill="#000000" transform="translate(248.8203125,5.82421875)"/>
<path d="M0 0 C32.34 0 64.68 0 98 0 C98 16.17 98 32.34 98 49 C65.66 49 33.32 49 0 49 C0 32.83 0 16.66 0 0 Z M17 17 C17 21.95 17 26.9 17 32 C38.12 32 59.24 32 81 32 C81 27.05 81 22.1 81 17 C59.88 17 38.76 17 17 17 Z " fill="#000000" transform="translate(207,303)"/>
<path d="M0 0 C5.28 0 10.56 0 16 0 C16 5.28 16 10.56 16 16 C21.28 16 26.56 16 32 16 C32 21.61 32 27.22 32 33 C26.72 33 21.44 33 16 33 C16 38.28 16 43.56 16 49 C10.72 49 5.44 49 0 49 C0 43.72 0 38.44 0 33 C-5.61 33 -11.22 33 -17 33 C-17 27.39 -17 21.78 -17 16 C-11.39 16 -5.78 16 0 16 C0 10.72 0 5.44 0 0 Z " fill="#000000" transform="translate(136,87)"/>
<path d="M0 0 C5.28 0 10.56 0 16 0 C16 5.28 16 10.56 16 16 C21.28 16 26.56 16 32 16 C32 21.61 32 27.22 32 33 C26.72 33 21.44 33 16 33 C16 38.28 16 43.56 16 49 C10.72 49 5.44 49 0 49 C0 43.72 0 38.44 0 33 C-5.22063275 33.03957157 -5.22063275 33.03957157 -10.44116211 33.09008789 C-12.29433759 33.09723945 -14.14749308 33.0502852 -16 33 C-17 32 -17 32 -17.09765625 28.40234375 C-17.09191272 26.91402745 -17.07889891 25.42573704 -17.0625 23.9375 C-17.041875 21.318125 -17.02125 18.69875 -17 16 C-11.39 16 -5.78 16 0 16 C0 10.72 0 5.44 0 0 Z " fill="#000000" transform="translate(368,47)"/>
<path d="M0 0 C5.94 0 11.88 0 18 0 C18 5.61 18 11.22 18 17 C12.06 17 6.12 17 0 17 C0 11.39 0 5.78 0 0 Z " fill="#000000" transform="translate(119,175)"/>
<path d="M0 0 C1.58206422 0.00574487 3.16410406 0.01876032 4.74609375 0.03515625 C7.53046875 0.05578125 10.31484375 0.07640625 13.18359375 0.09765625 C13.18359375 5.70765625 13.18359375 11.31765625 13.18359375 17.09765625 C7.24359375 17.09765625 1.30359375 17.09765625 -4.81640625 17.09765625 C-4.83703125 14.47828125 -4.85765625 11.85890625 -4.87890625 9.16015625 C-4.88801025 8.33394775 -4.89711426 7.50773926 -4.90649414 6.65649414 C-4.9136457 4.80331866 -4.86669145 2.95016317 -4.81640625 1.09765625 C-3.81640625 0.09765625 -3.81640625 0.09765625 0 0 Z " fill="#000000" transform="translate(307.81640625,102.90234375)"/>
<path d="M0 0 C5.94 0 11.88 0 18 0 C18 5.28 18 10.56 18 16 C12.06 16 6.12 16 0 16 C0 10.72 0 5.44 0 0 Z " fill="#000000" transform="translate(399,464)"/>
<path d="M0 0 C5.94 0 11.88 0 18 0 C18 5.28 18 10.56 18 16 C12.06 16 6.12 16 0 16 C0 10.72 0 5.44 0 0 Z " fill="#000000" transform="translate(95,464)"/>
<path d="M0 0 C5.28 0 10.56 0 16 0 C16 5.61 16 11.22 16 17 C10.72 17 5.44 17 0 17 C0 11.39 0 5.78 0 0 Z " fill="#000000" transform="translate(440,375)"/>
<path d="M0 0 C5.28 0 10.56 0 16 0 C16 5.61 16 11.22 16 17 C10.72 17 5.44 17 0 17 C0 11.39 0 5.78 0 0 Z " fill="#000000" transform="translate(56,375)"/>
<path d="M0 0 C5.28 0 10.56 0 16 0 C16 5.61 16 11.22 16 17 C10.72 17 5.44 17 0 17 C0 11.39 0 5.78 0 0 Z " fill="#000000" transform="translate(256,167)"/>
<path d="M0 0 C5.28 0 10.56 0 16 0 C16 5.61 16 11.22 16 17 C10.72 17 5.44 17 0 17 C0 11.39 0 5.78 0 0 Z " fill="#000000" transform="translate(184,151)"/>
<path d="M0 0 C5.28 0 10.56 0 16 0 C16 5.28 16 10.56 16 16 C10.72 16 5.44 16 0 16 C0 10.72 0 5.44 0 0 Z " fill="#000000" transform="translate(368,464)"/>
<path d="M0 0 C5.28 0 10.56 0 16 0 C16 5.28 16 10.56 16 16 C10.72 16 5.44 16 0 16 C0 10.72 0 5.44 0 0 Z " fill="#000000" transform="translate(336,464)"/>
<path d="M0 0 C5.28 0 10.56 0 16 0 C16 5.28 16 10.56 16 16 C10.72 16 5.44 16 0 16 C0 10.72 0 5.44 0 0 Z " fill="#000000" transform="translate(160,464)"/>
<path d="M0 0 C5.28 0 10.56 0 16 0 C16 5.28 16 10.56 16 16 C10.72 16 5.44 16 0 16 C0 10.72 0 5.44 0 0 Z " fill="#000000" transform="translate(128,464)"/>
<path d="M0 0 C5.28 0 10.56 0 16 0 C16 5.28 16 10.56 16 16 C10.72 16 5.44 16 0 16 C0 10.72 0 5.44 0 0 Z " fill="#000000" transform="translate(440,263)"/>
<path d="M0 0 C5.28 0 10.56 0 16 0 C16 5.28 16 10.56 16 16 C10.72 16 5.44 16 0 16 C0 10.72 0 5.44 0 0 Z " fill="#000000" transform="translate(56,263)"/>
<path d="M0 0 C5.28 0 10.56 0 16 0 C16 5.28 16 10.56 16 16 C10.72 16 5.44 16 0 16 C0 10.72 0 5.44 0 0 Z " fill="#000000" transform="translate(336,135)"/>
</svg>
