<?xml version="1.0" encoding="UTF-8"?>
<svg version="1.1" xmlns="http://www.w3.org/2000/svg" width="512" height="512">
<path d="M0 0 C13.61499383 9.33317693 19.55610811 21.98491645 25.66137695 36.890625 C26.06702881 37.86644531 26.47268066 38.84226563 26.890625 39.84765625 C27.24930664 40.73074463 27.60798828 41.61383301 27.97753906 42.52368164 C29.06688303 44.99196421 29.06688303 44.99196421 32.125 46.6875 C36.18832442 47.15322405 36.18832442 47.15322405 40.125 46.6875 C43.59393253 43.75007996 45.18657555 40.8343225 46.9296875 36.671875 C47.43113281 35.50269531 47.93257813 34.33351562 48.44921875 33.12890625 C48.96738372 31.89895828 49.48430387 30.66848516 50 29.4375 C56.09637326 14.8903996 63.28077672 2.12782985 78.5 -4.3125 C90.32531888 -8.80549715 104.62738164 -9.36393842 116.48828125 -4.6328125 C128.37019587 1.31694623 137.22350728 10.2627859 142.125 22.6875 C143.87702723 27.96287535 144.44432692 32.55332399 144.4609375 38.04296875 C144.4675943 38.8258577 144.4742511 39.60874664 144.48110962 40.4153595 C144.49118353 42.06504997 144.49592828 43.71478076 144.49560547 45.36450195 C144.49995822 47.85113091 144.53627481 50.33595218 144.57421875 52.82226562 C144.65770624 64.4041982 143.66617191 74.93410297 136.375 84.5 C135.76140625 85.33144531 135.1478125 86.16289063 134.515625 87.01953125 C128.06267575 94.22110697 121.15628038 98.56910578 112.44249153 102.73896599 C110.48836104 103.67475287 108.5427831 104.6266018 106.59849548 105.58265686 C101.77107378 107.95268353 96.93163347 110.29769845 92.09039307 112.63934326 C87.98650115 114.62498922 83.88869437 116.62226368 79.79830742 118.63559151 C77.90003746 119.56421903 75.99417779 120.47567044 74.0874176 121.38670349 C64.15814656 126.26726046 54.88458726 131.78574775 51.125 142.6875 C50.72733021 144.4331667 50.36201437 146.18648076 50.02734375 147.9453125 C49.85581787 148.83621582 49.68429199 149.72711914 49.50756836 150.64501953 C49.3813208 151.31903809 49.25507324 151.99305664 49.125 152.6875 C50.75062551 152.68196924 50.75062551 152.68196924 52.40909195 152.67632675 C78.75626272 152.58760259 105.10341416 152.52183222 131.45070267 152.48025131 C144.19196119 152.4596096 156.93312114 152.43145818 169.67431641 152.38574219 C180.77710908 152.34592378 191.87983039 152.32007891 202.98269248 152.31114602 C208.86379819 152.30592283 214.74469968 152.29361287 220.62574005 152.26457977 C226.1578579 152.23748972 231.68968682 152.22904207 237.2218647 152.23506927 C239.25524781 152.23396617 241.28864029 152.22597435 243.32196617 152.2106781 C246.09287097 152.19085056 248.86267708 152.19553432 251.63360596 152.20648193 C252.44294468 152.19483057 253.25228341 152.1831792 254.08614755 152.17117476 C257.45428367 152.20727962 259.60644922 152.29233201 262.33025575 154.36804223 C264.55176794 157.23903831 264.62600862 158.68967908 264.62836456 162.29101562 C264.63879555 163.43906677 264.64922654 164.58711792 264.65997362 165.7699585 C264.65105073 167.03180969 264.64212785 168.29366089 264.63293457 169.59375 C264.63754247 170.9472928 264.64389464 172.30083061 264.65184355 173.65435791 C264.66857566 177.37745001 264.66027318 181.10013316 264.64789867 184.82322693 C264.63886625 188.8369324 264.65280889 192.85056643 264.66381836 196.86425781 C264.68162757 204.72850722 264.67775295 212.59260414 264.6661678 220.45685959 C264.65714317 226.84690352 264.65590526 233.23690465 264.66026306 239.62695312 C264.66087599 240.53557476 264.66148893 241.4441964 264.66212043 242.38035202 C264.6633993 244.22605897 264.66469615 246.07176591 264.6660108 247.91747284 C264.67742363 265.23458331 264.66429187 282.55160916 264.64280933 299.86870575 C264.62493771 314.73542956 264.62804162 329.60202845 264.64648438 344.46875 C264.66787868 361.72286029 264.67632493 378.97689637 264.66403532 396.23101807 C264.66276109 398.07002766 264.66150361 399.90903726 264.66026306 401.74804688 C264.65933741 403.10537493 264.65933741 403.10537493 264.65839306 404.49012375 C264.65493583 410.87429329 264.66077651 417.25841586 264.67018127 423.64257812 C264.68138666 431.42019171 264.67839207 439.19764378 264.6570583 446.9752388 C264.6465281 450.94537499 264.64245931 454.91524163 264.65565491 458.88537598 C264.6675443 462.51737825 264.6610742 466.14886028 264.6397447 469.78081512 C264.63313551 471.72222438 264.64624566 473.66366954 264.65997362 475.6050415 C264.64432714 477.32711823 264.64432714 477.32711823 264.62836456 479.08398438 C264.62771515 480.07668335 264.62706574 481.06938232 264.62639666 482.09216309 C263.9517574 485.58424098 263.06910497 486.68754752 260.125 488.6875 C257.29401079 489.07947625 254.85265285 489.22522548 252.02270508 489.19086456 C251.19536173 489.19667833 250.36801838 489.20249209 249.51560402 489.20848203 C246.72495485 489.22315664 243.93517497 489.20916221 241.14453125 489.19543457 C239.13102262 489.20004054 237.11751736 489.20639139 235.10401917 489.21434355 C229.55672013 489.23110177 224.00969497 489.22276104 218.46239471 489.21039867 C212.48548998 489.20137701 206.50863353 489.21530355 200.53173828 489.22631836 C189.49499932 489.24310817 178.45833604 489.24160934 167.42159653 489.23067249 C157.2265302 489.22061901 147.03149604 489.21797936 136.83642578 489.22276306 C136.16074401 489.2230686 135.48506224 489.22337414 134.78890526 489.22368894 C132.04624518 489.22493425 129.30358511 489.22620785 126.56092507 489.227528 C100.82103975 489.23977009 75.08121032 489.22866051 49.34133363 489.20714041 C26.46190081 489.1881573 3.58255704 489.18985578 -19.296875 489.20898438 C-44.98901232 489.23039265 -70.68110024 489.23890197 -96.37324524 489.22653532 C-99.11097208 489.22525241 -101.84869892 489.22400105 -104.58642578 489.22276306 C-105.26054752 489.22244675 -105.93466926 489.22213044 -106.62921894 489.22180455 C-116.81906964 489.21725041 -127.0088847 489.22258365 -137.19873047 489.23268127 C-148.78248683 489.24410281 -160.36615843 489.24090597 -171.9499054 489.2195583 C-177.86426771 489.20901929 -183.77844894 489.20497454 -189.69281006 489.21815491 C-195.10115637 489.23002565 -200.5091528 489.22360441 -205.91746712 489.2022447 C-207.87971715 489.19775599 -209.84199641 489.20009531 -211.80422783 489.20974785 C-214.46081396 489.22181916 -217.11618371 489.20953201 -219.77270508 489.19086456 C-220.92960877 489.20491156 -220.92960877 489.20491156 -222.10988426 489.21924233 C-225.47681958 489.17158427 -227.53615755 488.91767821 -230.34993315 487.00625944 C-232.23332379 484.14269329 -232.37612986 482.49999342 -232.37836456 479.08398438 C-232.38879555 477.93593323 -232.39922654 476.78788208 -232.40997362 475.6050415 C-232.40105073 474.34319031 -232.39212785 473.08133911 -232.38293457 471.78125 C-232.38754247 470.4277072 -232.39389464 469.07416939 -232.40184355 467.72064209 C-232.41857566 463.99754999 -232.41027318 460.27486684 -232.39789867 456.55177307 C-232.38886625 452.5380676 -232.40280889 448.52443357 -232.41381836 444.51074219 C-232.43162757 436.64649278 -232.42775295 428.78239586 -232.4161678 420.91814041 C-232.40714317 414.52809648 -232.40590526 408.13809535 -232.41026306 401.74804688 C-232.41087599 400.83942524 -232.41148893 399.9308036 -232.41212043 398.99464798 C-232.4133993 397.14894103 -232.41469615 395.30323409 -232.4160108 393.45752716 C-232.42742363 376.14041669 -232.41429187 358.82339084 -232.39280933 341.50629425 C-232.37493771 326.63957044 -232.37804162 311.77297155 -232.39648438 296.90625 C-232.41787868 279.65213971 -232.42632493 262.39810363 -232.41403532 245.14398193 C-232.41276109 243.30497234 -232.41150361 241.46596274 -232.41026306 239.62695312 C-232.40964596 238.72206776 -232.40902886 237.81718239 -232.40839306 236.88487625 C-232.40493583 230.50070671 -232.41077651 224.11658414 -232.42018127 217.73242188 C-232.43138666 209.95480829 -232.42839207 202.17735622 -232.4070583 194.3997612 C-232.3965281 190.42962501 -232.39245931 186.45975837 -232.40565491 182.48962402 C-232.4175443 178.85762175 -232.4110742 175.22613972 -232.3897447 171.59418488 C-232.38313551 169.65277562 -232.39624566 167.71133046 -232.40997362 165.7699585 C-232.39954263 164.62190735 -232.38911164 163.4738562 -232.37836456 162.29101562 C-232.37771515 161.29831665 -232.37706574 160.30561768 -232.37639666 159.28283691 C-231.7273127 155.92303876 -230.57364671 154.73887551 -227.875 152.6875 C-224.83557538 152.29141734 -222.15757083 152.14032045 -219.11785889 152.16851807 C-218.22422677 152.16101681 -217.33059466 152.15351556 -216.40988278 152.145787 C-213.40941402 152.12545445 -210.40969693 152.13362346 -207.40917969 152.14160156 C-205.26082611 152.13286959 -203.11247904 152.12238513 -200.96414185 152.11027527 C-195.12567046 152.08234878 -189.28741059 152.07901206 -183.4488821 152.07999516 C-177.34960091 152.07687178 -171.25041578 152.05126556 -165.15118408 152.02801514 C-153.59863005 151.98740754 -142.04613254 151.96710322 -130.49351811 151.95404124 C-117.34247601 151.93818733 -104.19153031 151.89977848 -91.04054403 151.85944796 C-63.98539501 151.77698384 -36.93024859 151.72293241 -9.875 151.6875 C-10.50360457 149.91418679 -11.13630736 148.14232594 -11.77075195 146.37109375 C-12.12265091 145.38423584 -12.47454987 144.39737793 -12.83711243 143.38061523 C-13.93895768 140.52154233 -15.24579466 138.15336227 -17.0625 135.6875 C-18.84671989 133.23024526 -19.90270007 131.60439979 -20.875 128.6875 C-22.19132794 127.98785511 -23.52723681 127.32449027 -24.875 126.6875 C-26.515625 125.20703125 -26.515625 125.20703125 -28.125 123.5 C-31.14541628 120.39018451 -34.29238189 117.53251444 -37.57421875 114.703125 C-40.3827302 112.24269731 -43.12961879 109.71775008 -45.875 107.1875 C-49.17513347 104.14845466 -52.4844976 101.12593541 -55.875 98.1875 C-86.37525727 71.6268593 -86.37525727 71.6268593 -88.09423828 53.35742188 C-88.90472998 35.81824594 -85.85305399 22.4168747 -74.6875 8.5 C-56.53650173 -11.29018534 -22.2260914 -13.22839756 0 0 Z M-61.1875 19.375 C-68.11716355 26.86463636 -71.33459351 35.53840242 -71.875 45.6875 C-71.41462893 56.40969079 -66.54572387 65.85378559 -58.7109375 73.08984375 C-58.10507813 73.61707031 -57.49921875 74.14429687 -56.875 74.6875 C-55.96621094 75.49380859 -55.96621094 75.49380859 -55.0390625 76.31640625 C-53.73487755 77.46355668 -52.42470972 78.60393251 -51.109375 79.73828125 C-48.49648624 82.01770694 -45.93569979 84.34962353 -43.375 86.6875 C-40.25592989 89.53274228 -37.12744609 92.3594958 -33.9375 95.125 C-29.99231556 98.55172078 -26.15000895 102.08784671 -22.31030273 105.6315918 C-19.42045397 108.29282346 -16.49225064 110.89236727 -13.5 113.4375 C-1.18451051 124.22942378 4.00048236 137.18931249 8.125 152.6875 C16.045 152.6875 23.965 152.6875 32.125 152.6875 C32.3725 150.563125 32.62 148.43875 32.875 146.25 C34.82453528 132.79279121 41.19053139 121.86216864 52.125 113.6875 C55.9200703 111.48898002 59.81936199 109.55497278 63.77694321 107.66659927 C65.72730892 106.73506761 67.66889951 105.78706911 69.60916138 104.83468628 C74.42765002 102.47307305 79.25737385 100.13489765 84.09094238 97.80432129 C88.18705359 95.829312 92.27624011 93.84121114 96.35681534 91.83428574 C98.24832763 90.91034249 100.14828634 90.0058109 102.04928589 89.10159302 C111.87346694 84.27301237 121.78613268 78.17309601 126.125 67.6875 C129.75967922 55.34649614 130.20027739 37.88368516 124.9375 26.0078125 C120.41700021 17.72841887 114.08749866 12.67499955 105.125 9.6875 C95.42388592 7.54360739 88.04575543 9.80759722 79.58203125 14.6640625 C72.80863287 20.24215529 69.41324571 27.78427493 66 35.6875 C56.79592594 56.60325963 56.79592594 56.60325963 47.0625 62.5625 C40.59620734 64.98007789 32.73764142 64.77564501 26.20703125 62.80859375 C14.50460543 57.44424425 11.00318518 47.51490066 6.53320312 36.11132812 C2.21711469 25.67814803 -4.37943646 16.55971518 -14.875 11.6875 C-30.37871916 5.6944657 -48.87266778 7.95956564 -61.1875 19.375 Z " fill="#B0414C" transform="translate(239.875,15.3125)"/>
<path d="M0 0 C5.28 0 10.56 0 16 0 C16.79434448 2.02906494 16.79434448 2.02906494 17.60473633 4.09912109 C19.5687709 9.10862893 21.54528182 14.11313412 23.52563477 19.11621094 C24.38159817 21.28380713 25.23415498 23.45275175 26.08325195 25.62304688 C27.30310947 28.73927366 28.53506697 31.8504731 29.76953125 34.9609375 C30.14777542 35.934935 30.52601959 36.9089325 30.91572571 37.91244507 C31.27587265 38.81322784 31.63601959 39.71401062 32.00708008 40.64208984 C32.32018631 41.43706879 32.63329254 42.23204773 32.95588684 43.05111694 C33.9771801 45.325293 33.9771801 45.325293 37 47 C39.09451016 47.29915987 39.09451016 47.29915987 41.43410397 47.25168228 C42.34677656 47.25689778 43.25944916 47.26211327 44.1997785 47.26748681 C45.203849 47.26302537 46.2079195 47.25856392 47.24241638 47.25396729 C48.30796456 47.25708727 49.37351274 47.26020725 50.47135025 47.26342177 C54.05965028 47.27143082 57.64778255 47.26506675 61.23608398 47.25878906 C63.8014333 47.26149765 66.36678185 47.26505783 68.93212891 47.26940918 C75.18757695 47.27760111 81.44296237 47.2763758 87.69841128 47.2705839 C92.78173867 47.26607169 97.86505261 47.26545259 102.94838142 47.26763153 C103.67118935 47.267938 104.39399727 47.26824446 105.13870846 47.26856022 C106.60697794 47.26919965 108.07524741 47.26984808 109.54351688 47.2705054 C123.32062365 47.27621229 137.09770383 47.26964539 150.87480623 47.25890467 C162.70048636 47.24997072 174.52612722 47.25151921 186.35180664 47.26074219 C200.07722958 47.27144175 213.8026292 47.27566093 227.52805573 47.26951766 C228.99130475 47.26888055 230.45455378 47.26825181 231.91780281 47.26763153 C232.63778778 47.26732298 233.35777275 47.26701443 234.09957544 47.26669653 C239.17726921 47.2649685 244.25494821 47.26788704 249.33263969 47.27259064 C256.16567831 47.27878096 262.9986414 47.27438251 269.83167267 47.26280212 C272.34397063 47.26015095 274.85627482 47.26092838 277.36857033 47.26532745 C280.7893322 47.27076631 284.20985356 47.26396877 287.63059998 47.25396729 C288.63243976 47.25842873 289.63427954 47.26289017 290.6664781 47.26748681 C291.58175844 47.26227132 292.49703878 47.25705582 293.44005489 47.25168228 C294.22976584 47.25135758 295.01947679 47.25103287 295.83311838 47.25069833 C298.29871243 46.96544033 299.89561816 46.30195489 302 45 C303.247677 43.03340831 303.247677 43.03340831 304.10644531 40.64208984 C304.64655243 39.29091568 304.64655243 39.29091568 305.1975708 37.91244507 C305.57065369 36.93844757 305.94373657 35.96445007 306.328125 34.9609375 C306.72199402 33.96494537 307.11586304 32.96895325 307.52166748 31.94277954 C308.7774733 28.75846159 310.01388868 25.56700797 311.25 22.375 C312.09769266 20.21564854 312.94663575 18.05678751 313.796875 15.8984375 C315.8791391 10.60454133 317.94404354 5.30416548 320 0 C325.28 0 330.56 0 336 0 C336.04898437 1.83046875 336.09796875 3.6609375 336.1484375 5.546875 C336.22347053 7.94793196 336.29901813 10.34897288 336.375 12.75 C336.42140625 14.55984375 336.42140625 14.55984375 336.46875 16.40625 C336.50742187 17.56640625 336.54609375 18.7265625 336.5859375 19.921875 C336.63306885 21.52434082 336.63306885 21.52434082 336.68115234 23.15917969 C336.9953377 25.95846057 337.46877553 27.65588649 339 30 C347.66666667 34.33333333 358.3170111 31.64137078 368 32 C368 90.08 368 148.16 368 208 C354.635 208.495 354.635 208.495 341 209 C333.85073273 215.24199914 333.85073273 215.24199914 336 240 C225.12 240 114.24 240 0 240 C-0.33 231.09 -0.66 222.18 -1 213 C-2.72226496 209.75150023 -2.72226496 209.75150023 -6 209 C-14.58 208.67 -23.16 208.34 -32 208 C-32 149.92 -32 91.84 -32 32 C-23.42 31.67 -14.84 31.34 -6 31 C-4.68 30.34 -3.36 29.68 -2 29 C-0.94163339 25.82490018 -0.79756211 23.35717617 -0.68359375 20.01953125 C-0.64169922 18.85615234 -0.59980469 17.69277344 -0.55664062 16.49414062 C-0.51732422 15.27919922 -0.47800781 14.06425781 -0.4375 12.8125 C-0.39431641 11.58595703 -0.35113281 10.35941406 -0.30664062 9.09570312 C-0.20046986 6.06393808 -0.09972236 3.031984 0 0 Z " fill="#F1B0AF" transform="translate(88,216)"/>
<path d="M0 0 C3.03801262 2.58030827 5.28024681 4.80992204 7.33499146 8.26565552 C9.18844876 10.468727 10.21372531 11.13255037 13.05494308 11.76819992 C16.41050495 11.99734526 19.72199365 12.03244791 23.08544922 12.00732422 C24.36240662 12.02105072 25.63936401 12.03477722 26.95501709 12.04891968 C30.45123919 12.08476803 33.94645707 12.08244966 37.44280767 12.07103491 C40.36521804 12.06484725 43.287436 12.07704044 46.20981896 12.0891124 C53.10700217 12.11719575 60.00368996 12.11408838 66.90087891 12.09130859 C74.00699158 12.06835679 81.11159369 12.09647646 88.21750724 12.15010154 C94.32647965 12.19447018 100.43497885 12.20767822 106.54410088 12.19594872 C110.18929279 12.18921811 113.83351702 12.19397672 117.47857285 12.22845078 C121.54641473 12.26524474 125.61133588 12.23696589 129.67919922 12.20263672 C130.88047455 12.22197266 132.08174988 12.24130859 133.31942749 12.26123047 C139.47518874 12.22388652 139.47518874 12.22388652 144.76279068 9.4341011 C146.51296059 7.43436758 148.00282462 5.38243205 149.51171875 3.19921875 C162.91831626 -8.48311983 177.76956013 -13.11291949 195.32177734 -12.04345703 C209.44350235 -10.47857468 223.42211212 -2.42646932 232.38671875 8.48046875 C242.57196781 22.3534804 246.35050276 37.30765807 244.234375 54.4453125 C243.79855564 56.44178025 243.21290009 58.27923006 242.51171875 60.19921875 C242.19332031 61.11058594 241.87492187 62.02195312 241.546875 62.9609375 C236.14123372 77.17577199 226.87662356 88.42855824 213.01171875 95.07421875 C211.19133286 95.81519273 209.35779478 96.52479269 207.51171875 97.19921875 C206.67382812 97.51761719 205.8359375 97.83601563 204.97265625 98.1640625 C191.02688554 102.7354103 176.75347668 100.81483766 163.58203125 94.87890625 C156.69699181 91.3887062 148.82957234 86.64761561 145.16619873 79.61691284 C140.78481599 75.62635979 135.78528217 76.47059794 130.06738281 76.48876953 C128.1545752 76.46598938 128.1545752 76.46598938 126.203125 76.44274902 C122.70692321 76.40286955 119.211359 76.39524719 115.71495533 76.39586496 C112.7927009 76.39408336 109.87058639 76.37815657 106.94837737 76.36274326 C100.04980893 76.32722286 93.15157285 76.31945633 86.25292969 76.32763672 C79.14733432 76.33547054 72.04335894 76.29156721 64.93812776 76.22283566 C58.83002989 76.1658863 52.72245522 76.14390588 46.61409545 76.14907062 C42.96925226 76.15164273 39.32574446 76.14060779 35.68115997 76.09482193 C31.61088949 76.04524298 27.54409724 76.06847605 23.47363281 76.09814453 C21.67475616 76.06139114 21.67475616 76.06139114 19.83953857 76.02389526 C13.44900608 76.12735674 13.44900608 76.12735674 8.02391815 79.19787216 C6.02230105 81.44690017 4.26635756 83.75636479 2.51171875 86.19921875 C-10.12900597 97.2889343 -26.03655071 101.3246403 -42.49560547 100.39453125 C-56.34878482 99.03670921 -69.20489667 91.26018597 -78.48828125 81.19921875 C-89.74771755 66.58170496 -93.32333285 50.86523643 -90.98828125 32.76171875 C-87.92738555 18.42045917 -79.13985318 5.37442331 -66.98828125 -2.67578125 C-45.19901871 -15.59131344 -20.88283275 -15.11300769 0 0 Z " fill="#B0424D" transform="translate(179.48828125,291.80078125)"/>
<path d="M0 0 C22.11 0 44.22 0 67 0 C68.98 5.28 70.96 10.56 73 16 C70.90398437 16.03867188 70.90398437 16.03867188 68.765625 16.078125 C66.92705217 16.13440784 65.08851172 16.19175514 63.25 16.25 C61.86941406 16.27126953 61.86941406 16.27126953 60.4609375 16.29296875 C59.12675781 16.34130859 59.12675781 16.34130859 57.765625 16.390625 C56.94868164 16.41157227 56.13173828 16.43251953 55.29003906 16.45410156 C52.10647098 17.21299903 50.93589753 18.37969425 49 21 C48.36085024 23.98687874 48.36085024 23.98687874 48.390625 27.296875 C48.35839844 28.50214844 48.32617188 29.70742187 48.29296875 30.94921875 C48.27878906 32.20347656 48.26460937 33.45773438 48.25 34.75 C48.20552734 36.65458984 48.20552734 36.65458984 48.16015625 38.59765625 C48.08946049 41.73183485 48.03675988 44.86526956 48 48 C47.20303711 48.0093457 46.40607422 48.01869141 45.58496094 48.02832031 C41.97267825 48.08201498 38.36169179 48.16566608 34.75 48.25 C32.86861328 48.27126953 32.86861328 48.27126953 30.94921875 48.29296875 C29.74394531 48.32519531 28.53867187 48.35742188 27.296875 48.390625 C25.63156738 48.4220459 25.63156738 48.4220459 23.93261719 48.45410156 C20.22456815 49.14434446 19.25614024 49.99400545 17 53 C16.61135111 55.7776901 16.467561 58.15736471 16.50552368 60.9329834 C16.50069485 61.73803865 16.49586602 62.5430939 16.49089086 63.37254477 C16.47960778 66.07356181 16.49694786 68.77363465 16.51416016 71.47460938 C16.51201459 73.40957394 16.50813733 75.34453725 16.50265503 77.27949524 C16.49295069 82.53775033 16.5082787 87.79566657 16.52856112 93.05388069 C16.54611128 98.55198922 16.54260743 104.05008695 16.5418396 109.54821777 C16.54371345 118.7820402 16.56108868 128.01573128 16.58837891 137.24951172 C16.61983057 147.93092134 16.63037514 158.61218708 16.6289078 169.29363966 C16.62768771 179.56124338 16.6378943 189.82880015 16.65449142 200.09638977 C16.66155921 204.46951158 16.66521823 208.84261678 16.66627884 213.21574402 C16.66828579 218.36376919 16.6804797 223.51167322 16.70061111 228.65965843 C16.70645996 230.55111639 16.70891208 232.4425883 16.70775604 234.33405495 C16.70677662 236.91183822 16.71806613 239.48928074 16.73257446 242.0670166 C16.72947726 242.81915357 16.72638005 243.57129054 16.723189 244.34621954 C16.75747685 248.02403125 16.83352902 250.93744615 19 254 C21.73678725 255.36839363 24.04264424 255.21634818 27.1015625 255.31640625 C28.31328125 255.35830078 29.525 255.40019531 30.7734375 255.44335938 C32.04445312 255.48267578 33.31546875 255.52199219 34.625 255.5625 C35.90375 255.60568359 37.1825 255.64886719 38.5 255.69335938 C41.66655348 255.79969886 44.83318753 255.90172833 48 256 C48.029729 257.15000488 48.029729 257.15000488 48.06005859 258.32324219 C48.15535446 261.79917219 48.26501598 265.27450506 48.375 268.75 C48.42140625 270.55984375 48.42140625 270.55984375 48.46875 272.40625 C48.52675781 274.14648438 48.52675781 274.14648438 48.5859375 275.921875 C48.6173584 276.99018555 48.6487793 278.05849609 48.68115234 279.15917969 C48.9953377 281.95846057 49.46877553 283.65588649 51 286 C53.69905489 287.34952745 55.78663318 287.1266651 58.81032372 287.12863445 C60.677955 287.13347112 60.677955 287.13347112 62.58331621 287.1384055 C63.97777528 287.13693413 65.37223425 287.1353664 66.76669312 287.13371277 C68.23812278 287.13557943 69.70955195 287.13787955 71.18098032 287.14057809 C75.23910666 287.14672046 79.29721246 287.14655965 83.35534239 287.14538372 C87.72625264 287.14518032 92.09715619 287.1506926 96.46806335 287.15544128 C105.03706402 287.16376179 113.6060578 287.16649676 122.17506216 287.16705366 C129.13770139 287.16752817 136.10033833 287.16957965 143.06297684 287.17275429 C162.78639668 287.18156475 182.50981107 287.18617306 202.2332329 287.18542381 C203.29740862 287.18538386 204.36158434 287.1853439 205.45800781 287.18530273 C206.52347704 287.18526185 207.58894627 287.18522097 208.68670245 287.18517885 C225.95920782 287.18477229 243.23169141 287.19434334 260.50419049 287.2084411 C278.22286912 287.22278936 295.94153711 287.22971214 313.6602217 287.22884732 C323.6145791 287.22851481 333.56891366 287.23128552 343.52326584 287.24202538 C351.99806616 287.25111003 360.47283328 287.25332245 368.94763635 287.24651595 C373.27413832 287.24324039 377.60057653 287.2432312 381.92707253 287.2518692 C385.88467905 287.25968964 389.84217079 287.25834878 393.79977436 287.24958507 C395.23450085 287.24804019 396.66923572 287.2499031 398.10395233 287.25544515 C400.04862146 287.26246182 401.99332537 287.25604174 403.937994 287.24888897 C405.56081136 287.24921502 405.56081136 287.24921502 407.2164129 287.24954766 C410.0381888 286.99657639 411.68247956 286.61318928 414 285 C415.05836661 281.82490018 415.20243789 279.35717617 415.31640625 276.01953125 C415.35830078 274.85615234 415.40019531 273.69277344 415.44335938 272.49414062 C415.48267578 271.27919922 415.52199219 270.06425781 415.5625 268.8125 C415.60568359 267.58595703 415.64886719 266.35941406 415.69335938 265.09570312 C415.7995309 262.06391619 415.90157952 259.03204685 416 256 C416.76666992 255.98018066 417.53333984 255.96036133 418.32324219 255.93994141 C421.79917219 255.84464554 425.27450506 255.73498402 428.75 255.625 C429.9565625 255.5940625 431.163125 255.563125 432.40625 255.53125 C433.56640625 255.49257813 434.7265625 255.45390625 435.921875 255.4140625 C436.99018555 255.3826416 438.05849609 255.3512207 439.15917969 255.31884766 C441.97428611 255.00288607 443.67751742 254.60336217 446 253 C447.21874252 249.34377245 447.14151273 245.98699298 447.13371277 242.18054199 C447.13597833 241.3756356 447.13824388 240.57072921 447.14057809 239.74143171 C447.14692522 237.03528898 447.14608828 234.32919624 447.14526367 231.62304688 C447.14825467 229.68660924 447.15165707 227.75017221 447.15544128 225.81373596 C447.16429038 220.54734803 447.16661975 215.28097633 447.16725707 210.01458168 C447.16820533 205.62313715 447.17188258 201.23169642 447.17542917 196.84025335 C447.1835768 186.48383231 447.18601308 176.12741997 447.18530273 165.77099609 C447.1847015 155.07426304 447.19526168 144.37758035 447.2110464 133.68086004 C447.22410314 124.50715315 447.22948743 115.33346276 447.22884732 106.15974665 C447.22859183 100.67617683 447.23147119 95.19265178 447.24202538 89.70909119 C447.25167529 84.5545416 447.25180699 79.40007987 447.24450874 74.24552727 C447.2434591 72.35041616 447.24584816 70.45529967 447.2518692 68.56019783 C447.25953847 65.97984646 447.25497822 63.39980233 447.24723816 60.81945801 C447.2549535 59.68586011 447.2549535 59.68586011 447.26282471 58.52936125 C447.23797788 54.79945848 447.12501417 53.18752126 445 50 C441.82490018 48.94163339 439.35717617 48.79756211 436.01953125 48.68359375 C434.85615234 48.64169922 433.69277344 48.59980469 432.49414062 48.55664062 C431.27919922 48.51732422 430.06425781 48.47800781 428.8125 48.4375 C427.58595703 48.39431641 426.35941406 48.35113281 425.09570312 48.30664062 C422.06391619 48.2004691 419.03204685 48.09842048 416 48 C415.98018066 47.19780029 415.96036133 46.39560059 415.93994141 45.5690918 C415.84480505 41.94155823 415.7350792 38.31460955 415.625 34.6875 C415.57859375 32.79354492 415.57859375 32.79354492 415.53125 30.86132812 C415.49257813 29.65283203 415.45390625 28.44433594 415.4140625 27.19921875 C415.36693115 25.52605591 415.36693115 25.52605591 415.31884766 23.8190918 C415.194751 20.79631214 415.194751 20.79631214 413 18 C410.27498092 17.09166031 408.37766029 16.81640015 405.55078125 16.68359375 C404.70322266 16.64169922 403.85566406 16.59980469 402.98242188 16.55664062 C402.10134766 16.51732422 401.22027344 16.47800781 400.3125 16.4375 C398.97348633 16.37272461 398.97348633 16.37272461 397.60742188 16.30664062 C395.40512656 16.2006478 393.20258338 16.09982779 391 16 C392.98 10.72 394.96 5.44 397 0 C419.11 0 441.22 0 464 0 C464 100.32 464 200.64 464 304 C310.88 304 157.76 304 0 304 C0 203.68 0 103.36 0 0 Z " fill="#F1B0AF" transform="translate(24,184)"/>
<path d="M0 0 C97.68 0 195.36 0 296 0 C287.95815737 21.44491368 279.42947913 42.70447378 271 64 C189.82 64 108.64 64 25 64 C1 4 1 4 0 0 Z " fill="#F1B0AF" transform="translate(108,184)"/>
<path d="M0 0 C38.28 0 76.56 0 116 0 C115.67 2.31 115.34 4.62 115 7 C114.91110071 9.24862914 114.86981479 11.4996202 114.875 13.75 C114.87242187 14.85859375 114.86984375 15.9671875 114.8671875 17.109375 C115.03701635 22.08436133 115.54932354 27.04255898 116 32 C77.72 32 39.44 32 0 32 C0.33 28.7 0.66 25.4 1 22 C1.08479923 19.43856457 1.13044704 16.87533294 1.125 14.3125 C1.12757813 13.09175781 1.13015625 11.87101562 1.1328125 10.61328125 C1.04193435 6.41884759 1.04193435 6.41884759 0 0 Z " fill="#F1B0AF" transform="translate(198,320)"/>
<path d="M0 0 C6.51299055 3.65059343 11.44298219 8.83214933 13.75 16 C14.68183712 23.02310922 14.24237895 28.94015983 10.3671875 34.9609375 C5.81914476 40.69542617 1.16487513 44.84941593 -6.25 46 C-13.12200232 46.71089679 -18.61830135 46.22377399 -24.25 42 C-30.88444904 35.80078964 -34.19803454 30.76708396 -34.625 21.625 C-34.45212074 14.90090668 -32.79515033 10.67335753 -28.15625 5.80078125 C-19.79637213 -1.95997204 -10.90570496 -4.94502958 0 0 Z " fill="#B1424D" transform="translate(266.25,194)"/>
<path d="M0 0 C10.83904436 -0.47593538 20.16711328 3.34856417 28.5078125 10.19140625 C35.51584033 16.88025658 40.73866004 25.38530134 41.84375 35.1640625 C42.00926662 48.25642693 38.58796107 59.3492686 29.765625 69.12109375 C21.91117186 76.71481816 11.25384755 80.4817855 0.48046875 80.33984375 C-7.97693865 79.91752906 -14.34634695 77.71365317 -21.4921875 73.19140625 C-21.4921875 72.86140625 -21.4921875 72.53140625 -21.4921875 72.19140625 C-20.6765332 72.18729736 -19.86087891 72.18318848 -19.02050781 72.17895508 C-15.93347099 72.1516497 -12.84772099 72.10222912 -9.76123047 72.03881836 C-7.79285972 72.00478244 -5.82411361 71.99523154 -3.85546875 71.98632812 C6.37200289 71.75270568 14.16569359 69.45603447 22.8828125 64.12890625 C29.9844079 56.18188282 32.88952433 46.99527904 32.78515625 36.546875 C32.38760308 31.73704162 30.98333508 28.28613857 28.5078125 24.19140625 C28.11851562 23.49273437 27.72921875 22.7940625 27.328125 22.07421875 C22.76669829 14.92168574 15.34911765 11.80517463 7.5078125 9.19140625 C5.29821997 9.04031532 3.08481203 8.94266824 0.87109375 8.875 C-1.07700195 8.8121582 -1.07700195 8.8121582 -3.06445312 8.74804688 C-4.43619511 8.70823638 -5.80793994 8.66852409 -7.1796875 8.62890625 C-8.56316395 8.5856979 -9.94662777 8.54208286 -11.33007812 8.49804688 C-14.71734469 8.39182597 -18.10468549 8.28978267 -21.4921875 8.19140625 C-15.64919694 2.11378245 -8.16078426 0.6267687 0 0 Z " fill="#F0ADAD" transform="translate(366.4921875,295.80859375)"/>
<path d="M0 0 C1.02323154 0.97621576 2.02816024 1.97261133 3 3 C2.13834229 3.0093457 1.27668457 3.01869141 0.38891602 3.02832031 C-2.84886581 3.07268242 -6.08574648 3.13445068 -9.32299805 3.20751953 C-10.71643218 3.23551371 -12.11001875 3.25683406 -13.50366211 3.27099609 C-21.7084343 3.35931442 -28.8097991 3.68771188 -36 8 C-36.80953125 8.46921875 -37.6190625 8.9384375 -38.453125 9.421875 C-45.12992536 14.35690136 -48.72261573 20.02418259 -51 28 C-52.28954182 38.45207577 -50.05454469 47.94810708 -43.6875 56.4375 C-36.73968367 63.06216209 -29.4976107 66.16672793 -19.8515625 66.4140625 C-19.19417084 66.43342865 -18.53677917 66.4527948 -17.85946655 66.4727478 C-15.78143865 66.53202461 -13.70335376 66.57871794 -11.625 66.625 C-10.2070085 66.66322778 -8.78903903 66.70228223 -7.37109375 66.7421875 C-3.91426539 66.83768171 -0.45727017 66.92190189 3 67 C0.51570868 69.62273064 -1.54360165 70.82868394 -4.9375 72.125 C-5.79214844 72.45757812 -6.64679688 72.79015625 -7.52734375 73.1328125 C-17.57435638 76.65640935 -27.71138879 76.0295819 -37.3125 71.484375 C-48.73214445 65.17701324 -54.78414218 57.32844479 -59 45 C-61.6574409 34.21789903 -60.28431597 24.69254797 -55 15 C-43.10314402 -4.38141647 -20.32155101 -10.79962666 0 0 Z " fill="#F0AEAD" transform="translate(164,301)"/>
<path d="M0 0 C5.67476113 1.96434039 9.31400331 5.62800662 12 11 C12.54360446 15.95482094 12.56437074 19.87125852 10.3125 24.375 C5.45305518 29.89112655 2.30858296 31.73317879 -4.875 32.3125 C-9.23455451 32.24767391 -11.6384369 30.82676897 -15 28 C-19.39893104 23.00661882 -20.35676337 20.08984773 -20.28125 13.5390625 C-19.73016315 8.56397287 -16.99302299 5.87480597 -13.375 2.6875 C-8.92314854 -0.47565762 -5.3540278 -0.48837416 0 0 Z " fill="#F0AEAD" transform="translate(372,320)"/>
<path d="M0 0 C4.36629252 2.18314626 7.52338687 4.78058503 10 9 C11.22367828 13.92823855 11.30336272 17.91146317 9.9375 22.8125 C7.37577082 27.02695768 4.47111665 29.76444167 0 32 C-4.95482094 32.54360446 -8.87125852 32.56437074 -13.375 30.3125 C-17.45235712 26.72054254 -20.59004052 23.52833982 -21.23828125 17.94921875 C-21.42001793 12.41103242 -20.74513006 9.35244845 -17 5 C-11.37343316 0.04326255 -7.41017624 -0.82081952 0 0 Z " fill="#F0AEAD" transform="translate(149,320)"/>
<path d="M0 0 C2.97 0 5.94 0 9 0 C8.7834375 0.67804688 8.566875 1.35609375 8.34375 2.0546875 C5.06828732 13.00322478 5.53364718 21.14701439 9 32 C6.03 32 3.06 32 0 32 C-3.26774376 21.59379218 -5.12671418 10.25342836 0 0 Z " fill="#F0AEAD" transform="translate(331,320)"/>
<path d="M0 0 C2.97 0 5.94 0 9 0 C13.85317426 10.67698337 12.38984715 21.20495105 9 32 C6.03 32 3.06 32 0 32 C0.2165625 31.32195312 0.433125 30.64390625 0.65625 29.9453125 C3.93171268 18.99677522 3.46635282 10.85298561 0 0 Z " fill="#F0AEAD" transform="translate(172,320)"/>
<path d="M0 0 C5.28 0 10.56 0 16 0 C16 5.28 16 10.56 16 16 C10.72 16 5.44 16 0 16 C0 10.72 0 5.44 0 0 Z " fill="#B0414C" transform="translate(456,456)"/>
<path d="M0 0 C5.28 0 10.56 0 16 0 C16 5.28 16 10.56 16 16 C10.72 16 5.44 16 0 16 C0 10.72 0 5.44 0 0 Z " fill="#B0414C" transform="translate(40,456)"/>
<path d="M0 0 C5.28 0 10.56 0 16 0 C16 5.28 16 10.56 16 16 C10.72 16 5.44 16 0 16 C0 10.72 0 5.44 0 0 Z " fill="#B0414C" transform="translate(456,200)"/>
<path d="M0 0 C5.28 0 10.56 0 16 0 C16 5.28 16 10.56 16 16 C10.72 16 5.44 16 0 16 C0 10.72 0 5.44 0 0 Z " fill="#B0414C" transform="translate(40,200)"/>
<path d="M0 0 C1.8046875 0.640625 1.8046875 0.640625 3.8046875 2.328125 C5.10888306 5.34407723 5.21189969 7.38292747 4.8046875 10.640625 C3.8046875 12.953125 3.8046875 12.953125 1.8046875 14.640625 C-1.89512811 15.78748929 -4.99215762 16.10337688 -8.6328125 14.703125 C-11.01371087 11.56033915 -11.62081384 8.5537177 -11.1953125 4.640625 C-8.1181485 -0.22327939 -5.38557002 -1.09743691 0 0 Z " fill="#EFACAC" transform="translate(259.1953125,208.359375)"/>
</svg>
