<svg xmlns="http://www.w3.org/2000/svg" xmlns:xlink="http://www.w3.org/1999/xlink" version="1.1" x="0px" y="0px" viewBox="0 0 100 125" enable-background="new 0 0 100 100" xml:space="preserve"><g><path d="M86.781,22.747c-0.17-0.035-0.341-0.044-0.516-0.021c-3.039,0.542-6.053,1.305-9.771,2.928   c0.677,2.129,1.999,4.593,3.646,7.542c0.214,0.384,0.497,0.694,0.826,0.913c0.653,0.422,1.263,0.815,1.845,1.191   c3.071-4.129,4.7-6.765,5.985-9.813C89.07,24.293,87.921,22.988,86.781,22.747z"/><path d="M93.384,43.145c-4.902-2.962-7.565-4.657-12.985-8.123c-0.596-0.388-1.087-0.932-1.438-1.579   c-5.769-10.529-6.007-15.08-8.771-23.723c-0.397-1.247-0.969-1.798-1.811-2.083c-0.841-0.271-2.302,0.569-2.302,0.569   c0.206-0.103-5.385,4.305-8.084,6.087c0.707,0.32,1.337,0.884,1.784,1.648c1.553,2.665,2.432,4.152,3.933,6.7l0.467,0.79   c0.181,0.31,0.076,0.698-0.234,0.879c-0.297,0.181-0.698,0.09-0.879-0.22l-0.467-0.789c-1.499-2.548-2.379-4.037-3.945-6.714   c-0.49-0.854-1.279-1.345-2.082-1.293c-0.595,0.039-1.073,0.414-1.332,1.035c-1.811,4.462-2.857,6.83-5.006,11.538   c-0.116,0.246-0.349,0.388-0.594,0.388c-0.091,0-0.182-0.026-0.272-0.065c-0.323-0.143-0.465-0.53-0.311-0.854   c2.134-4.708,3.182-7.062,4.993-11.486c0.283-0.701,0.774-1.21,1.368-1.522c-2.023-1.47-6.14-6.323-7.528-7.444   c-0.773-0.624-1.307-1.19-2.083-1.138c-1.268,0.078-2.587,1.216-2.807,2.949c-0.311,2.419-0.139,5.149-0.437,7.698   c-0.181,1.785-0.343,2.316-1.141,2.785c-1.134,0.665-2.884-0.354-3.868-0.898c-1.557-0.862-3.145-1.665-4.715-2.51   c-2.509-1.35-5.307-3.354-8.185-3.795c-0.729-0.111-1.504-0.062-2.066,0.47c-2.092,1.982,1.211,9.275,3.354,15.047   c3.997,0.622,6.998,1.307,12.25,2.639c0.336,0.09,0.543,0.439,0.466,0.789c-0.091,0.35-0.453,0.557-0.789,0.466   c-4.825-1.229-7.735-1.901-11.279-2.483c-1.074-0.168-2.212-0.336-3.479-0.504c-0.608-0.078-1.358,0.271-1.953,0.944   c-0.492,0.556-0.79,1.216-0.815,1.798c-0.014,0.181-0.014,0.349,0.025,0.504c1.203,4.837,2.108,7.567,4.204,13.285   c0.129,0.335-0.052,0.711-0.388,0.828c-0.064,0.025-0.142,0.038-0.22,0.038c-0.258,0-0.504-0.155-0.607-0.414   c-1.695-4.631-2.613-7.321-3.544-10.736c-4.735,0.763-7.296,1.268-11.784,2.264c-2.29,0.517-3.945,3.57-2.458,4.967   c3.713,3.454,6.054,5.756,11.06,10.607c1.113,1.049,1.436,2.858,0.75,4.127c-4.307,6.209-9.019,13.245-7.093,15.942   c1.926,2.698,8.862,0.771,14.285,1.146c0.026,0,0.065,0.012,0.09,0.012c1.384,0.271,2.768,1.655,3.208,3.233   c1.423,5.305,3.494,14.453,6.028,15.297s6.52-1.948,10.323-4.276c0.401-0.245,0.879-0.362,1.358-0.335   c0.776,0.051,1.565,0.439,2.122,1.125c1.513,1.914,2.25,2.846,3.609,4.593c0.504,0.671,1.177,0.943,1.862,0.904   c1.189-0.091,2.432-1.177,2.69-2.794c0.608-3.506,0.918-5.342,1.514-9.146c0.259-1.682,1.668-2.949,3.079-3.079   c0.451-0.051,0.905,0.027,1.318,0.234c3.233,2.838,11.428,10.259,14.29,7.948c2.863-2.312-1.56-12.27-1.304-13.761   c0.227-1.281,1.248-2.347,2.46-2.766c1.343-0.465,11.766,0.754,12.9-2.039c1.136-2.791-5.616-10.422-6.162-11.478   c-0.764-1.475-0.143-3.596,1.357-4.475c3.558-2.083,5.265-3.079,8.434-4.799C95.584,47.104,95.351,44.361,93.384,43.145z    M50.983,71.382c-5.575,4.566-8.292,6.778-12.768,10.35c-0.466,0.374-1.022,0.557-1.604,0.557c-0.439,0-0.893-0.105-1.345-0.312   c-1.461-0.673-2.522-2.276-2.561-3.893c-0.117-3.895,0-8.293,0.09-11.514c0.052-1.824,0.104-3.558,0.052-3.841   c-0.064-0.349,0.168-0.686,0.505-0.764c0.349-0.063,0.672,0.143,0.763,0.479c0.078,0.337,0.052,1.294-0.025,4.165   c-0.091,3.195-0.208,7.58-0.091,11.436c0.039,1.28,0.931,2.354,1.811,2.755c0.349,0.167,1.035,0.375,1.604-0.078   c4.463-3.57,7.18-5.782,12.741-10.348c0.285-0.22,0.686-0.181,0.919,0.09C51.293,70.748,51.255,71.15,50.983,71.382z M50.62,52.898   c-0.025,0-0.051,0-0.078-0.013c-4.618-0.57-7.101-1.734-7.825-3.648c-0.932-2.471,1.475-5.472,4.022-8.344   c0.233-0.271,0.634-0.284,0.906-0.052c0.271,0.233,0.297,0.647,0.052,0.918c-2.173,2.445-4.45,5.226-3.764,7.024   c0.517,1.384,2.793,2.329,6.765,2.82c0.35,0.052,0.609,0.376,0.557,0.725C51.215,52.652,50.944,52.898,50.62,52.898z    M81.522,60.206c-0.646,1.242-1.824,2.045-3.077,2.097c-3.094,0.103-5.356,0.154-7.918,0.154c-1.733,0-3.596-0.025-5.949-0.064   c-0.363-0.012-0.647-0.31-0.635-0.659c0-0.362,0.271-0.66,0.66-0.635c5.86,0.104,8.563,0.091,13.803-0.09   c0.776-0.026,1.538-0.569,1.965-1.396c0.4-0.776,0.4-1.604,0-2.2c-3.596-5.432-5.871-8.77-10.593-15.315   c-0.208-0.284-0.144-0.686,0.154-0.892c0.285-0.207,0.686-0.143,0.905,0.142c4.722,6.558,6.998,9.896,10.607,15.341   C82.104,57.698,82.144,59.004,81.522,60.206z"/></g><text x="0" y="115" fill="#000000" font-size="5px" font-weight="bold" font-family="'Helvetica Neue', Helvetica, Arial-Unicode, Arial, Sans-serif">Created by Kevin</text><text x="0" y="120" fill="#000000" font-size="5px" font-weight="bold" font-family="'Helvetica Neue', Helvetica, Arial-Unicode, Arial, Sans-serif">from the Noun Project</text></svg>