<?xml version="1.0" encoding="UTF-8"?>
<svg version="1.1" xmlns="http://www.w3.org/2000/svg" width="200" height="199">
<path d="M0 0 C2.99994414 0.99521639 4.36002752 2.18626825 6.55004883 4.44750977 C7.18724854 5.09469971 7.82444824 5.74188965 8.48095703 6.40869141 C9.66564575 7.64800415 9.66564575 7.64800415 10.87426758 8.91235352 C13.41114258 11.53172852 15.94801758 14.15110352 18.56176758 16.84985352 C15.26176758 24.43985352 11.96176758 32.02985352 8.56176758 39.84985352 C9.92301758 37.12735352 9.92301758 37.12735352 11.31176758 34.34985352 C11.8609082 33.2605957 12.41004883 32.17133789 12.97583008 31.04907227 C13.91742271 29.14965265 14.83764205 27.23898862 15.71020508 25.30688477 C18.08358224 20.09494851 18.08358224 20.09494851 20.42895508 18.89282227 C22.56176758 18.84985352 22.56176758 18.84985352 24.57739258 20.40454102 C26.79465488 23.13683669 28.55792785 25.92437159 30.31176758 28.97485352 C30.92536133 30.02930664 31.53895508 31.08375977 32.17114258 32.17016602 C33.56176758 34.84985352 33.56176758 34.84985352 33.56176758 36.84985352 C34.22176758 36.84985352 34.88176758 36.84985352 35.56176758 36.84985352 C35.22854492 36.32029053 34.89532227 35.79072754 34.55200195 35.24511719 C33.04829655 32.84681222 31.5549508 30.44222232 30.06176758 28.03735352 C29.53711914 27.20397461 29.0124707 26.3705957 28.47192383 25.51196289 C27.72749023 24.30830078 27.72749023 24.30830078 26.96801758 23.08032227 C26.50717773 22.34193115 26.04633789 21.60354004 25.5715332 20.84277344 C24.56176758 18.84985352 24.56176758 18.84985352 24.56176758 15.84985352 C26.85137453 13.4733453 29.5989893 11.62065313 32.24926758 9.66235352 C32.97049805 9.10354492 33.69172852 8.54473633 34.43481445 7.96899414 C35.14057617 7.44112305 35.84633789 6.91325195 36.57348633 6.36938477 C37.21761475 5.88574463 37.86174316 5.40210449 38.52539062 4.90380859 C41.1016448 3.57043258 42.69748358 3.44460336 45.56176758 3.84985352 C48.93710365 6.07213658 49.486522 9.27745964 50.50708008 13.03735352 C50.85738281 14.28532715 51.20768555 15.53330078 51.56860352 16.8190918 C51.84166321 17.80718842 51.84166321 17.80718842 52.12023926 18.81524658 C54.89785957 28.79068002 57.86200283 38.59498392 62.31176758 47.97485352 C62.83988037 49.10793945 62.83988037 49.10793945 63.37866211 50.26391602 C66.56118393 56.65579121 71.18928057 59.73459978 77.22973633 63.45141602 C78.28741211 64.10625977 79.34508789 64.76110352 80.43481445 65.43579102 C82.07546875 66.44512695 82.07546875 66.44512695 83.74926758 67.47485352 C85.93178735 68.81872575 88.11285252 70.16496408 90.29223633 71.51391602 C91.25540771 72.10640137 92.2185791 72.69888672 93.2109375 73.30932617 C96.47497359 75.44828845 97.42428547 76.19993811 98.24926758 80.09985352 C97.56176758 83.84985352 97.56176758 83.84985352 95.90161133 85.43188477 C93.51233566 87.0289491 91.06974112 88.44671413 88.56176758 89.84985352 C86.74859237 90.97376496 84.93607453 92.0987377 83.12426758 93.22485352 C78.82330604 95.84985352 78.82330604 95.84985352 76.56176758 95.84985352 C75.75404206 100.51671206 75.85438103 102.74801891 78.46020508 106.80688477 C80.07732579 108.88716141 81.70905144 110.956162 83.35473633 113.01391602 C86.50780436 117.06546892 88.44891392 120.36707297 88.68676758 125.59985352 C87.26060143 128.45218581 85.57833828 129.05731192 82.69213867 130.22094727 C78.79270035 131.37209935 74.85329975 131.38740151 70.81176758 131.47485352 C69.12936188 131.52591287 67.44705724 131.58045216 65.76489258 131.63891602 C65.02916016 131.65647949 64.29342773 131.67404297 63.53540039 131.69213867 C61.34944961 131.78748527 61.34944961 131.78748527 58.56176758 132.84985352 C59.09942512 139.87128022 59.09942512 139.87128022 60.62426758 146.72485352 C62.0478559 151.94824524 62.12310901 157.48408982 61.56176758 162.84985352 C59.56176758 164.84985352 59.56176758 164.84985352 57.74926758 165.07250977 C49.37930985 164.45970929 44.10003368 159.85686392 37.88208008 154.57250977 C37.01325195 153.8390332 36.14442383 153.10555664 35.24926758 152.34985352 C34.46938477 151.65891602 33.68950195 150.96797852 32.88598633 150.25610352 C30.63356323 148.60362655 30.63356323 148.60362655 27.89379883 148.94360352 C25.23295327 149.72056537 25.23295327 149.72056537 23.56176758 152.84985352 C22.98928127 155.09811341 22.98928127 155.09811341 22.63208008 157.59594727 C22.47610352 158.51569336 22.32012695 159.43543945 22.15942383 160.38305664 C21.8451385 162.31422312 21.53780633 164.24653445 21.23754883 166.17993164 C20.54827851 170.18386371 20.01947864 173.16525135 17.74145508 176.57250977 C15.56176758 177.84985352 15.56176758 177.84985352 13.03833008 177.84204102 C10.11281558 176.66998947 8.89888429 175.42077983 6.93676758 172.97485352 C5.81398231 171.59804443 4.68909351 170.22294719 3.56176758 168.84985352 C2.86954102 167.97973633 2.86954102 167.97973633 2.16333008 167.09204102 C0.57960519 165.65646639 0.57960519 165.65646639 -1.80932617 165.48266602 C-4.97802646 165.92524822 -6.82084857 166.99349115 -9.50073242 168.72485352 C-18.82980021 174.67590754 -18.82980021 174.67590754 -25.43823242 173.84985352 C-32.61454544 167.69872807 -34.40857245 155.80109806 -36.60009766 147.00732422 C-36.89315796 145.87943481 -36.89315796 145.87943481 -37.19213867 144.72875977 C-37.44459351 143.71664429 -37.44459351 143.71664429 -37.70214844 142.68408203 C-38.63534219 140.35868083 -39.37800054 139.30410223 -41.43823242 137.84985352 C-44.37402729 137.40781659 -44.37402729 137.40781659 -47.71557617 137.47875977 C-48.95114258 137.46135742 -50.18670898 137.44395508 -51.4597168 137.42602539 C-54.06647695 137.41692448 -56.67325359 137.41170443 -59.2800293 137.41040039 C-60.51688477 137.39170898 -61.75374023 137.37301758 -63.02807617 137.35375977 C-64.72758423 137.35098022 -64.72758423 137.35098022 -66.46142578 137.34814453 C-70.08275329 136.74196644 -71.27800078 135.77741095 -73.43823242 132.84985352 C-74.02873928 122.02389451 -65.6486351 111.7833245 -59.62573242 103.38500977 C-57.99106871 99.89521783 -58.13359614 98.48838931 -59.43823242 94.84985352 C-61.55738819 92.11697998 -63.98999804 89.78341949 -66.50073242 87.41235352 C-67.18014893 86.74856689 -67.85956543 86.08478027 -68.55957031 85.40087891 C-72.04176458 82.02439485 -75.59568521 78.83049622 -79.37573242 75.78735352 C-81.99242577 73.56885263 -82.36678417 73.18111357 -83.12573242 69.66235352 C-82.34261507 66.45869162 -81.76934728 65.18096838 -79.43823242 62.84985352 C-76.69787695 61.92860274 -74.1857143 61.24195813 -71.37573242 60.66235352 C-70.66223633 60.49799805 -69.94874023 60.33364258 -69.21362305 60.16430664 C-63.57678498 58.92007161 -58.25987457 58.43201773 -52.43823242 57.84985352 C-50.12823242 64.44985352 -47.81823242 71.04985352 -45.43823242 77.84985352 C-46.11933034 74.44436395 -46.82653649 71.42714025 -47.88354492 68.16235352 C-48.15553711 67.29868164 -48.4275293 66.43500977 -48.70776367 65.54516602 C-49.2787956 63.74602433 -49.85694752 61.94912721 -50.44213867 60.15454102 C-50.71155273 59.29086914 -50.9809668 58.42719727 -51.25854492 57.53735352 C-51.50878418 56.7574707 -51.75902344 55.97758789 -52.0168457 55.17407227 C-52.51538156 52.42432641 -52.20457329 50.52432416 -51.43823242 47.84985352 C-49.95776367 45.95922852 -49.95776367 45.95922852 -47.43823242 44.84985352 C-44.26628365 44.90886652 -41.23389536 45.49489307 -38.12573242 46.09985352 C-36.46301999 46.39699715 -34.80026029 46.69387642 -33.13745117 46.99047852 C-32.34387207 47.13807617 -31.55029297 47.28567383 -30.73266602 47.43774414 C-27.64386403 47.99253215 -24.54802556 48.43017833 -21.43823242 48.84985352 C-21.99285156 48.77057617 -22.5474707 48.69129883 -23.11889648 48.60961914 C-25.64917998 48.22653147 -28.16709082 47.7889493 -30.68823242 47.34985352 C-31.99727539 47.16422852 -31.99727539 47.16422852 -33.33276367 46.97485352 C-39.6398407 45.81935849 -39.6398407 45.81935849 -41.86328125 43.11938477 C-42.91505741 41.06044285 -43.71084133 39.04289882 -44.43823242 36.84985352 C-44.84428711 35.81860352 -45.2503418 34.78735352 -45.66870117 33.72485352 C-50.28577647 19.85478241 -50.28577647 19.85478241 -48.75073242 14.41235352 C-47.0481092 12.38542111 -46.03855682 12.22724573 -43.43823242 11.84985352 C-35.22786803 13.46525012 -27.81900794 18.26591891 -20.72094727 22.49560547 C-15.46382817 25.64449509 -15.46382817 25.64449509 -9.43823242 25.84985352 C-8.01983384 21.59465778 -8.08681594 17.28021199 -7.9206543 12.83032227 C-7.72159117 8.79647704 -7.38388757 5.42458263 -5.43823242 1.84985352 C-2.43823242 -0.15014648 -2.43823242 -0.15014648 0 0 Z M1.56176758 70.84985352 C-2.9787142 75.52387888 -6.54979775 79.25005308 -7.43823242 85.84985352 C-6.53842884 88.4746949 -5.82866477 89.59685336 -3.48510742 91.11547852 C1.02876322 93.04999451 4.54420546 94.36447527 9.56176758 93.84985352 C7.22128287 91.5093688 5.72450251 91.19570123 2.56176758 90.34985352 C-2.2160102 89.07207574 -2.2160102 89.07207574 -4.43823242 86.84985352 C-4.43823242 80.88415181 -1.06978778 77.22548903 2.56176758 72.84985352 C2.23176758 72.18985352 1.90176758 71.52985352 1.56176758 70.84985352 Z M47.56176758 71.84985352 C49.25240326 75.59052003 51.57652573 78.82673665 53.94848633 82.15454102 C54.81332044 83.3895871 55.67722486 84.62528462 56.5402832 85.86157227 C57.89488615 87.79868645 59.25407783 89.73157749 60.62939453 91.65405273 C61.960339 93.51837552 63.26841454 95.39704985 64.57348633 97.27954102 C64.98797531 97.84849091 65.40246429 98.4174408 65.82951355 99.00363159 C67.90224797 102.03623038 68.58432912 103.54295505 68.31103516 107.26049805 C68.06377686 108.11498535 67.81651855 108.96947266 67.56176758 109.84985352 C63.44695553 110.60756137 59.46836524 111.02140706 55.28833008 111.16625977 C54.13461914 111.2081543 52.9809082 111.25004883 51.79223633 111.29321289 C50.60243164 111.3325293 49.41262695 111.3718457 48.18676758 111.41235352 C46.36725586 111.47712891 46.36725586 111.47712891 44.51098633 111.54321289 C41.52801726 111.64890865 38.54497016 111.75100672 35.56176758 111.84985352 C35.56176758 112.17985352 35.56176758 112.50985352 35.56176758 112.84985352 C42.20907778 113.89147748 48.59624063 113.91472045 55.31176758 113.66235352 C56.33915039 113.64366211 57.3665332 113.6249707 58.42504883 113.60571289 C64.13870395 113.43488639 64.13870395 113.43488639 69.26489258 111.17407227 C71.0580476 107.96043601 71.21838229 106.50689304 70.56176758 102.84985352 C69.01331781 99.8053537 67.09821031 97.06959942 65.12426758 94.28735352 C64.58237793 93.50247559 64.04048828 92.71759766 63.48217773 91.90893555 C62.37934133 90.31392958 61.27095912 88.72274348 60.15698242 87.13549805 C58.69008114 85.03370285 57.25409165 82.91525193 55.83129883 80.78344727 C52.80815895 76.23677898 52.80815895 76.23677898 49.56176758 71.84985352 C48.90176758 71.84985352 48.24176758 71.84985352 47.56176758 71.84985352 Z M-26.43823242 113.84985352 C-26.56215119 118.60032703 -26.65271803 123.34985313 -26.71289062 128.1015625 C-26.73798201 129.71663813 -26.77206368 131.33160078 -26.81542969 132.94628906 C-26.87632528 135.27250058 -26.90449366 137.5972071 -26.92651367 139.92407227 C-26.96522331 141.00092537 -26.96522331 141.00092537 -27.00471497 142.09953308 C-27.0069002 146.03613842 -26.55314442 147.7036475 -24.09033203 150.8371582 C-21.60428893 153.12007711 -21.60428893 153.12007711 -18.51635742 152.97875977 C-14.72891712 151.58971123 -12.11955962 149.46701685 -9.18823242 146.78735352 C-8.05264054 145.78477362 -6.91590878 144.78348344 -5.77807617 143.78344727 C-5.21846191 143.28699707 -4.65884766 142.79054687 -4.08227539 142.27905273 C-0.9494032 139.55558469 2.35194312 137.04304033 5.63598633 134.50610352 C7.78254436 132.81025607 7.78254436 132.81025607 9.56176758 129.84985352 C6.07666827 131.39429428 3.41854421 133.47460705 0.49926758 135.91235352 C-0.46624023 136.70641602 -1.43174805 137.50047852 -2.42651367 138.31860352 C-4.42646437 139.99949593 -6.40358777 141.70794716 -8.35620117 143.44360352 C-9.29077148 144.25829102 -10.2253418 145.07297852 -11.18823242 145.91235352 C-12.02870117 146.66645508 -12.86916992 147.42055664 -13.73510742 148.19750977 C-16.43823242 149.84985352 -16.43823242 149.84985352 -23.43823242 149.84985352 C-23.76823242 137.96985352 -24.09823242 126.08985352 -24.43823242 113.84985352 C-25.09823242 113.84985352 -25.75823242 113.84985352 -26.43823242 113.84985352 Z " fill="#000000" transform="translate(92.438232421875,11.150146484375)"/>
<path d="M0 0 C1.8228115 3.13928648 0.88864218 5.4657564 0.125 8.9375 C-1.11306315 11.53386984 -2.63640002 13.87300383 -4.25 16.25 C-4.64960938 16.86939453 -5.04921875 17.48878906 -5.4609375 18.12695312 C-7.41061385 21.08032799 -8.89700184 22.9521679 -11.875 24.9375 C-16.66146443 22.67676507 -18.55345339 19.62707319 -20.75 15 C-21.0696875 14.37931641 -21.389375 13.75863281 -21.71875 13.11914062 C-22.93135001 10.64385495 -23.83606637 8.42924865 -24.0546875 5.66796875 C-21.99096747 2.6407238 -18.49263541 2.13020076 -15.125 1.1875 C-14.04992187 0.85685547 -14.04992187 0.85685547 -12.953125 0.51953125 C-3.84179882 -2.17701933 -3.84179882 -2.17701933 0 0 Z " fill="#000000" transform="translate(176.875,46.0625)"/>
</svg>
