<?xml version="1.0" encoding="UTF-8"?>
<svg version="1.1" xmlns="http://www.w3.org/2000/svg" width="118" height="113">
<path d="M0 0 C3.31234673 0.40559348 4.64580297 1.14420274 7.0625 3.375 C7.619375 3.024375 8.17625 2.67375 8.75 2.3125 C11.68418913 1.12296387 13.10838797 1.28664294 16.0625 2.375 C17.0525 4.355 17.0525 4.355 18.0625 6.375 C21.0325 6.375 24.0025 6.375 27.0625 6.375 C27.413125 7.509375 27.76375 8.64375 28.125 9.8125 C28.85987486 11.77020138 28.85987486 11.77020138 30.0625 13.375 C33.61357891 14.35907238 33.61357891 14.35907238 37.0625 14.375 C38.0625 15.375 38.0625 15.375 38.1875 18.75 C38.62972114 22.33986988 38.62972114 22.33986988 40.68359375 23.50390625 C42.84368621 24.4395513 42.84368621 24.4395513 46.0625 25.375 C46.00449219 25.98988281 45.94648437 26.60476562 45.88671875 27.23828125 C45.74928681 29.70027633 45.69141942 31.93459948 46.0625 34.375 C48.48922567 36.16469026 48.48922567 36.16469026 51.0625 37.375 C51.7075399 40.96879371 50.89699724 43.27928591 49.0625 46.375 C49.743125 47.1175 50.42375 47.86 51.125 48.625 C53.0625 51.375 53.0625 51.375 53 53.4375 C51.92642534 55.65622096 50.62481572 57.47305043 49.0625 59.375 C49.413125 59.931875 49.76375 60.48875 50.125 61.0625 C51.32103552 64.01272095 51.13208635 65.39543802 50.0625 68.375 C49.381875 68.808125 48.70125 69.24125 48 69.6875 C45.87051471 71.16709309 45.87051471 71.16709309 45.80078125 73.3359375 C45.81138589 75.35081992 45.93065788 77.36440773 46.0625 79.375 C44.94875 79.890625 43.835 80.40625 42.6875 80.9375 C39.36763805 82.79448516 39.12255213 83.2062821 37.75 87.0625 C37.523125 88.155625 37.29625 89.24875 37.0625 90.375 C34.35370665 91.72939668 32.05316732 91.44001451 29.0625 91.375 C28.918125 92.344375 28.77375 93.31375 28.625 94.3125 C28.0625 97.375 28.0625 97.375 27.0625 98.375 C25.804375 98.2925 24.54625 98.21 23.25 98.125 C21.06768665 98.01093921 21.06768665 98.01093921 19.0625 98.375 C18.44375 99.220625 17.825 100.06625 17.1875 100.9375 C16.48625 101.741875 15.785 102.54625 15.0625 103.375 C12.40516458 103.37940686 10.00538854 103.00108581 7.40234375 102.4765625 C4.98553595 102.09896847 4.98553595 102.09896847 3.4140625 103.84765625 C2.96804687 104.35167969 2.52203125 104.85570313 2.0625 105.375 C-1.27942692 105.13046876 -2.54293557 104.76956443 -4.9375 102.375 C-7.22153254 102.5459058 -7.22153254 102.5459058 -9.75 103.0625 C-12.4765625 103.4140625 -12.4765625 103.4140625 -14.9375 103.375 C-17.625 100.9375 -17.625 100.9375 -19.9375 98.375 C-22.26949388 98.29594936 -24.60582622 98.28701231 -26.9375 98.375 C-28.9375 95.375 -28.9375 95.375 -28.9375 91.375 C-29.865625 91.41625 -30.79375 91.4575 -31.75 91.5 C-34.9375 91.375 -34.9375 91.375 -37.9375 89.375 C-38.205625 88.240625 -38.47375 87.10625 -38.75 85.9375 C-39.59936277 82.12342679 -39.59936277 82.12342679 -43.0625 80.4375 C-44.01125 80.086875 -44.96 79.73625 -45.9375 79.375 C-45.7828125 77.51875 -45.7828125 77.51875 -45.625 75.625 C-45.54360834 73.43874764 -45.54360834 73.43874764 -45.9375 71.375 C-48.27580958 68.8345774 -48.27580958 68.8345774 -50.9375 67.375 C-50.45171457 64.25209365 -49.9388988 61.37919641 -48.9375 58.375 C-49.618125 57.818125 -50.29875 57.26125 -51 56.6875 C-52.9375 54.375 -52.9375 54.375 -52.875 51.875 C-51.90101395 49.27770388 -50.72950849 47.47866214 -48.9375 45.375 C-49.5975 44.385 -50.2575 43.395 -50.9375 42.375 C-51.375 39.875 -51.375 39.875 -50.9375 37.375 C-50.1125 36.9625 -49.2875 36.55 -48.4375 36.125 C-47.6125 35.5475 -46.7875 34.97 -45.9375 34.375 C-45.47575369 31.33833899 -45.64980861 28.42452874 -45.9375 25.375 C-44.803125 25.024375 -43.66875 24.67375 -42.5 24.3125 C-40.54229862 23.57762514 -40.54229862 23.57762514 -38.9375 22.375 C-37.95342762 18.82392109 -37.95342762 18.82392109 -37.9375 15.375 C-36.9375 14.375 -36.9375 14.375 -33.5625 14.25 C-29.97263012 13.80777886 -29.97263012 13.80777886 -28.80859375 11.75390625 C-27.8729487 9.59381379 -27.8729487 9.59381379 -26.9375 6.375 C-23.9675 6.705 -20.9975 7.035 -17.9375 7.375 C-17.710625 6.570625 -17.48375 5.76625 -17.25 4.9375 C-15.9375 2.375 -15.9375 2.375 -13.625 1.4375 C-10.57024463 1.36645918 -8.66598253 2.04973706 -5.9375 3.375 C-5.56625 2.88 -5.195 2.385 -4.8125 1.875 C-2.9375 0.375 -2.9375 0.375 0 0 Z M-10.9375 65.375 C-11.2675 67.025 -11.5975 68.675 -11.9375 70.375 C-10.6175 70.705 -9.2975 71.035 -7.9375 71.375 C-7.2775 70.055 -6.6175 68.735 -5.9375 67.375 C-6.5975 66.715 -7.2575 66.055 -7.9375 65.375 C-8.9275 65.375 -9.9175 65.375 -10.9375 65.375 Z M8.0625 65.375 C7.4025 66.695 6.7425 68.015 6.0625 69.375 C6.7225 70.035 7.3825 70.695 8.0625 71.375 C10.17070797 71.0564823 10.17070797 71.0564823 12.0625 70.375 C11.7325 68.725 11.4025 67.075 11.0625 65.375 C10.0725 65.375 9.0825 65.375 8.0625 65.375 Z " fill="#000000" transform="translate(58.9375,2.625)"/>
</svg>
