<svg xmlns="http://www.w3.org/2000/svg" xmlns:xlink="http://www.w3.org/1999/xlink" version="1.1" x="0px" y="0px" viewBox="0 0 100 125" enable-background="new 0 0 100 100" xml:space="preserve"><g><path d="M74.896,50.589c0.625-0.591,1.271-1.202,1.271-1.986c0-0.784-0.646-1.396-1.271-1.986c-0.417-0.395-0.89-0.841-0.933-1.17   c-0.046-0.347,0.303-0.912,0.61-1.411c0.445-0.722,0.905-1.468,0.708-2.208c-0.202-0.752-0.981-1.173-1.736-1.581   c-0.508-0.274-1.083-0.584-1.212-0.895c-0.132-0.319,0.057-0.952,0.223-1.511c0.243-0.815,0.494-1.659,0.108-2.325   c-0.388-0.67-1.248-0.874-2.079-1.071c-0.564-0.133-1.203-0.285-1.41-0.554c-0.209-0.271-0.19-0.93-0.175-1.511   c0.024-0.853,0.049-1.733-0.497-2.279c-0.573-0.572-1.473-0.519-2.279-0.498c-0.167,0.005-0.334,0.01-0.497,0.01   c-0.333,0-0.8-0.019-1.014-0.184c-0.27-0.207-0.421-0.847-0.555-1.411c-0.197-0.832-0.4-1.691-1.07-2.079   c-0.582-0.336-1.492-0.14-2.326,0.108c-0.586,0.174-1.228,0.34-1.511,0.222c-0.311-0.129-0.622-0.705-0.896-1.212   c-0.408-0.754-0.829-1.535-1.582-1.736c-0.694-0.186-1.485,0.263-2.207,0.708c-0.487,0.3-0.99,0.611-1.403,0.611   c-0.002,0-0.005,0-0.008,0c-0.328-0.043-0.774-0.516-1.169-0.933c-0.591-0.625-1.202-1.272-1.986-1.272s-1.396,0.646-1.986,1.271   c-0.395,0.417-0.841,0.89-1.232,0.937c-0.352,0-0.857-0.312-1.348-0.615c-0.722-0.445-1.514-0.893-2.207-0.708   c-0.753,0.201-1.175,0.981-1.582,1.736c-0.273,0.507-0.585,1.083-0.895,1.211c-0.288,0.118-0.925-0.048-1.511-0.222   c-0.834-0.249-1.744-0.444-2.326-0.108c-0.67,0.388-0.873,1.248-1.07,2.079c-0.134,0.564-0.285,1.203-0.555,1.41   c-0.214,0.165-0.681,0.184-1.013,0.184c-0.163,0-0.33-0.005-0.498-0.01c-0.807-0.024-1.708-0.074-2.279,0.498   c-0.546,0.546-0.521,1.427-0.497,2.279c0.016,0.581,0.034,1.24-0.175,1.511c-0.207,0.27-0.846,0.421-1.41,0.554   c-0.831,0.197-1.691,0.401-2.079,1.071c-0.386,0.666-0.135,1.51,0.107,2.326c0.167,0.559,0.354,1.191,0.223,1.511   c-0.129,0.311-0.704,0.621-1.212,0.896c-0.754,0.407-1.534,0.829-1.736,1.582c-0.197,0.739,0.263,1.485,0.708,2.207   c0.308,0.499,0.656,1.064,0.61,1.411c-0.043,0.329-0.516,0.775-0.933,1.17c-0.625,0.591-1.271,1.202-1.271,1.986   c0,0.784,0.646,1.395,1.271,1.986c0.417,0.395,0.89,0.841,0.933,1.17c0.046,0.347-0.303,0.912-0.61,1.411   c-0.445,0.722-0.905,1.468-0.708,2.208c0.202,0.752,0.981,1.173,1.736,1.581c0.508,0.274,1.083,0.584,1.212,0.895   c0.132,0.319-0.057,0.952-0.223,1.511c-0.243,0.815-0.494,1.659-0.108,2.325c0.389,0.67,1.248,0.874,2.079,1.071   c0.564,0.133,1.203,0.285,1.41,0.554c0.209,0.271,0.19,0.93,0.175,1.511c-0.024,0.853-0.049,1.733,0.497,2.279   c0.572,0.571,1.47,0.519,2.28,0.498c0.167-0.005,0.334-0.009,0.497-0.009c0.332,0,0.799,0.019,1.013,0.183   c0.271,0.208,0.422,0.847,0.555,1.411c0.197,0.831,0.4,1.691,1.071,2.079c0.579,0.336,1.49,0.141,2.325-0.108   c0.585-0.173,1.223-0.34,1.511-0.222c0.311,0.129,0.622,0.704,0.896,1.212c0.408,0.754,0.829,1.535,1.582,1.736   c0.694,0.186,1.485-0.263,2.207-0.708c0.487-0.3,0.99-0.611,1.403-0.611c0.002,0,0.005,0,0.008,0   c0.328,0.043,0.774,0.516,1.169,0.933c0.591,0.625,1.202,1.272,1.986,1.272s1.396-0.646,1.986-1.271   c0.395-0.417,0.841-0.89,1.232-0.937c0.352,0,0.857,0.312,1.348,0.615c0.721,0.445,1.513,0.891,2.207,0.708   c0.753-0.201,1.175-0.981,1.582-1.736c0.273-0.507,0.585-1.083,0.895-1.211c0.281-0.118,0.924,0.047,1.511,0.223   c0.835,0.248,1.744,0.444,2.326,0.108c0.67-0.388,0.873-1.248,1.07-2.079c0.134-0.564,0.285-1.203,0.555-1.41   c0.214-0.165,0.681-0.184,1.014-0.184c0.163,0,0.33,0.005,0.497,0.01c0.808,0.023,1.707,0.075,2.279-0.498   c0.546-0.546,0.521-1.427,0.498-2.28c-0.017-0.581-0.034-1.239,0.174-1.511c0.207-0.27,0.846-0.421,1.41-0.554   c0.832-0.197,1.691-0.401,2.08-1.072c0.385-0.666,0.134-1.509-0.108-2.325c-0.166-0.559-0.354-1.192-0.223-1.511   c0.129-0.311,0.704-0.622,1.212-0.896c0.755-0.408,1.534-0.829,1.736-1.582c0.197-0.739-0.263-1.485-0.708-2.207   c-0.308-0.499-0.656-1.064-0.61-1.411C74.006,51.43,74.479,50.984,74.896,50.589z M45.333,58.244c-0.945,0-1.711-0.766-1.711-1.711   s0.766-1.711,1.711-1.711s1.711,0.766,1.711,1.711S46.279,58.244,45.333,58.244z M54.667,58.244c-0.945,0-1.711-0.766-1.711-1.711   s0.766-1.711,1.711-1.711s1.711,0.766,1.711,1.711S55.612,58.244,54.667,58.244z"/></g><text x="0" y="115" fill="#000000" font-size="5px" font-weight="bold" font-family="'Helvetica Neue', Helvetica, Arial-Unicode, Arial, Sans-serif">Created by Nook Fulloption</text><text x="0" y="120" fill="#000000" font-size="5px" font-weight="bold" font-family="'Helvetica Neue', Helvetica, Arial-Unicode, Arial, Sans-serif">from the Noun Project</text></svg>